<svg width="276" height="115" viewBox="0 0 276 115" fill="none" xmlns="http://www.w3.org/2000/svg">
<path d="M0 114.452V87.7593H12.8193C15.5691 87.7593 17.7592 88.5114 19.3896 90.0156C21.02 91.5198 21.8377 93.553 21.8377 96.1053C21.8377 97.8279 21.5067 99.1962 20.8448 100.22C20.1829 101.244 19.3556 102.015 18.3579 102.54C17.3601 103.064 16.3624 103.447 15.3647 103.69L22.4022 114.457H18.8056L12.3375 104.214H3.03692V114.457H0.0048642L0 114.452ZM3.03206 101.346H12.2937C13.2622 101.346 14.2502 101.2 15.2479 100.904C16.2456 100.608 17.0876 100.079 17.7738 99.3127C18.4601 98.546 18.8056 97.4785 18.8056 96.1053C18.8056 94.4118 18.2264 93.0726 17.0681 92.0924C15.9098 91.1122 14.3719 90.6222 12.4592 90.6222H3.03692V101.346H3.03206Z" fill="#232323"/>
<path d="M35.7912 114.772C33.7422 114.772 31.9512 114.306 30.4133 113.379C28.8754 112.453 27.683 111.196 26.8362 109.609C25.9845 108.022 25.561 106.276 25.561 104.369C25.561 102.462 25.965 100.681 26.7729 99.1087C27.5808 97.5365 28.7391 96.2846 30.2527 95.3578C31.7663 94.431 33.5427 93.9652 35.5917 93.9652C37.6406 93.9652 39.4511 94.431 40.9501 95.3578C42.4442 96.2846 43.5977 97.5365 44.4056 99.1087C45.2135 100.681 45.6174 102.437 45.6174 104.369V105.577H28.671C28.8316 106.761 29.2161 107.843 29.8244 108.823C30.4328 109.803 31.2455 110.584 32.2725 111.162C33.2945 111.739 34.482 112.03 35.8301 112.03C37.261 112.03 38.4582 111.715 39.4268 111.084C40.3953 110.453 41.1496 109.638 41.6899 108.644H45.0042C44.3034 110.444 43.1889 111.919 41.6655 113.059C40.1422 114.204 38.1808 114.772 35.7815 114.772H35.7912ZM28.7148 102.758H42.4637C42.196 101.04 41.466 99.5988 40.2785 98.4439C39.0909 97.2891 37.5287 96.7116 35.5868 96.7116C33.6449 96.7116 32.0875 97.2891 30.9146 98.4439C29.7417 99.5988 29.0068 101.04 28.7099 102.758H28.7148Z" fill="#232323"/>
<path d="M55.7255 114.452L47.7974 94.2902H51.1117L57.5019 111.225L63.8532 94.2902H67.1675L59.2832 114.452H55.7255Z" fill="#232323"/>
<path d="M79.4665 114.772C77.4175 114.772 75.6265 114.306 74.0886 113.379C72.5507 112.453 71.3583 111.196 70.5114 109.609C69.6646 108.022 69.2363 106.276 69.2363 104.369C69.2363 102.462 69.6403 100.681 70.4482 99.1087C71.2561 97.5365 72.4144 96.2846 73.928 95.3578C75.4367 94.431 77.218 93.9652 79.267 93.9652C81.3159 93.9652 83.1313 94.431 84.6254 95.3578C86.1195 96.2846 87.273 97.5365 88.0809 99.1087C88.8888 100.681 89.2927 102.437 89.2927 104.369V105.577H72.3463C72.5069 106.761 72.8914 107.843 73.4997 108.823C74.1081 109.803 74.9208 110.584 75.9478 111.162C76.9747 111.739 78.1573 112.03 79.5054 112.03C80.9363 112.03 82.1335 111.715 83.1069 111.084C84.0803 110.453 84.8298 109.638 85.37 108.644H88.6844C87.9835 110.444 86.869 111.919 85.3457 113.059C83.8224 114.204 81.861 114.772 79.4616 114.772H79.4665ZM72.3901 102.758H86.139C85.8713 101.04 85.1413 99.5988 83.9538 98.4439C82.7662 97.2891 81.204 96.7116 79.2621 96.7116C77.3202 96.7116 75.7628 97.2891 74.5899 98.4439C73.417 99.5988 72.6821 101.04 72.3852 102.758H72.3901Z" fill="#232323"/>
<path d="M93.9014 114.452V94.2903H96.9334V97.4346C97.6635 96.469 98.5492 95.649 99.6005 94.9745C100.652 94.3 102 93.9652 103.645 93.9652C105.047 93.9652 106.361 94.2952 107.587 94.9551C108.813 95.615 109.811 96.5952 110.58 97.9005C111.349 99.2057 111.734 100.812 111.734 102.719V114.452H108.702V102.801C108.702 100.972 108.176 99.5017 107.125 98.3857C106.073 97.2697 104.711 96.7116 103.041 96.7116C101.907 96.7116 100.885 96.9688 99.9704 97.4783C99.0554 97.9878 98.3205 98.7059 97.7657 99.6376C97.2108 100.569 96.9383 101.632 96.9383 102.845V114.457H93.9062L93.9014 114.452Z" fill="#232323"/>
<path d="M125.565 114.772C124.193 114.772 122.884 114.442 121.643 113.782C120.402 113.122 119.399 112.142 118.63 110.837C117.861 109.531 117.477 107.925 117.477 106.018V94.2853H120.509V105.936C120.509 107.765 121.039 109.235 122.105 110.351C123.171 111.467 124.524 112.025 126.169 112.025C127.303 112.025 128.325 111.763 129.245 111.239C130.16 110.715 130.895 109.997 131.449 109.08C131.999 108.168 132.277 107.105 132.277 105.897V94.2853H135.309V114.447H132.277V111.302C131.547 112.268 130.661 113.088 129.61 113.763C128.558 114.432 127.21 114.772 125.565 114.772Z" fill="#232323"/>
<path d="M150.44 114.772C148.391 114.772 146.6 114.306 145.062 113.379C143.524 112.453 142.331 111.196 141.485 109.609C140.638 108.022 140.209 106.276 140.209 104.369C140.209 102.462 140.613 100.681 141.421 99.1087C142.229 97.5365 143.388 96.2846 144.901 95.3578C146.41 94.431 148.191 93.9652 150.24 93.9652C152.289 93.9652 154.104 94.431 155.599 95.3578C157.093 96.2846 158.246 97.5365 159.054 99.1087C159.862 100.681 160.266 102.437 160.266 104.369V105.577H143.319C143.48 106.761 143.864 107.843 144.473 108.823C145.081 109.803 145.894 110.584 146.921 111.162C147.948 111.739 149.13 112.03 150.479 112.03C151.909 112.03 153.107 111.715 154.08 111.084C155.053 110.453 155.803 109.638 156.343 108.644H159.657C158.957 110.444 157.842 111.919 156.319 113.059C154.795 114.204 152.834 114.772 150.435 114.772H150.44ZM143.363 102.758H157.112C156.844 101.04 156.114 99.5988 154.927 98.4439C153.739 97.2891 152.177 96.7116 150.235 96.7116C148.293 96.7116 146.736 97.2891 145.563 98.4439C144.39 99.5988 143.655 101.04 143.358 102.758H143.363Z" fill="#232323"/>
<path d="M165.522 114.452V87.7593H169.041L178.624 100.419L188.046 87.7593H191.565V114.452H188.533V92.3544L178.624 105.053L168.554 92.3544V114.452H165.522Z" fill="#232323"/>
<path d="M206.896 114.772C204.93 114.772 203.207 114.306 201.742 113.379C200.272 112.453 199.134 111.196 198.326 109.609C197.518 108.022 197.114 106.276 197.114 104.369C197.114 102.462 197.518 100.681 198.326 99.1087C199.134 97.5365 200.272 96.2846 201.742 95.3578C203.212 94.431 204.93 93.9652 206.896 93.9652C208.566 93.9652 210.001 94.2903 211.203 94.9308C212.401 95.5762 213.379 96.4496 214.133 97.5511V94.2855H217.165V114.447H214.133V111.22C213.379 112.297 212.401 113.156 211.203 113.802C210.001 114.447 208.566 114.767 206.896 114.767V114.772ZM207.3 112.03C208.809 112.03 210.084 111.681 211.121 110.982C212.157 110.284 212.946 109.347 213.486 108.183C214.026 107.013 214.294 105.742 214.294 104.373C214.294 103.005 214.026 101.7 213.486 100.545C212.946 99.3901 212.157 98.4633 211.121 97.7646C210.084 97.0659 208.809 96.7165 207.3 96.7165C205.791 96.7165 204.536 97.0659 203.46 97.7646C202.38 98.4633 201.557 99.3901 200.993 100.545C200.428 101.7 200.141 102.976 200.141 104.373C200.141 105.771 200.423 107.013 200.993 108.183C201.557 109.352 202.38 110.284 203.46 110.982C204.536 111.681 205.821 112.03 207.3 112.03Z" fill="#232323"/>
<path d="M225.497 114.452V96.954H221.37V94.2949H225.497V87.0795H228.529V94.2949H233.182V96.954H228.529V114.452H225.497Z" fill="#232323"/>
<path d="M245.957 114.772C243.908 114.772 242.117 114.306 240.579 113.379C239.041 112.453 237.849 111.196 237.002 109.609C236.15 108.022 235.727 106.276 235.727 104.369C235.727 102.462 236.131 100.681 236.938 99.1087C237.746 97.5365 238.905 96.2846 240.418 95.3578C241.927 94.431 243.708 93.9652 245.757 93.9652C247.806 93.9652 249.617 94.431 251.116 95.3578C252.61 96.2846 253.763 97.5365 254.571 99.1087C255.379 100.681 255.783 102.437 255.783 104.369V105.577H238.836C238.997 106.761 239.382 107.843 239.99 108.823C240.598 109.803 241.411 110.584 242.438 111.162C243.46 111.739 244.648 112.03 245.996 112.03C247.427 112.03 248.624 111.715 249.592 111.084C250.566 110.453 251.315 109.638 251.855 108.644H255.17C254.469 110.444 253.354 111.919 251.831 113.059C250.308 114.204 248.346 114.772 245.947 114.772H245.957ZM238.88 102.758H252.629C252.362 101.04 251.632 99.5988 250.444 98.4439C249.256 97.2891 247.694 96.7116 245.752 96.7116C243.81 96.7116 242.253 97.2891 241.08 98.4439C239.907 99.5988 239.172 101.04 238.875 102.758H238.88Z" fill="#232323"/>
<path d="M267.755 114.772C265.896 114.772 264.324 114.462 263.044 113.845C261.764 113.229 260.786 112.414 260.114 111.405C259.438 110.395 259.063 109.303 258.98 108.12H262.134C262.217 108.794 262.451 109.444 262.84 110.075C263.229 110.706 263.833 111.22 264.641 111.608C265.449 111.997 266.5 112.195 267.794 112.195C268.198 112.195 268.7 112.157 269.289 112.074C269.882 111.992 270.457 111.846 271.007 111.633C271.556 111.419 272.024 111.094 272.403 110.667C272.783 110.235 272.968 109.687 272.968 109.012C272.968 108.178 272.642 107.532 271.999 107.076C271.352 106.62 270.515 106.266 269.493 106.009C268.466 105.752 267.381 105.504 266.237 105.261C265.088 105.019 264.008 104.703 262.981 104.315C261.954 103.927 261.122 103.374 260.475 102.661C259.827 101.947 259.506 100.972 259.506 99.7395C259.506 97.9102 260.173 96.4933 261.506 95.484C262.84 94.4747 264.816 93.9701 267.429 93.9701C269.211 93.9701 270.656 94.2467 271.775 94.795C272.895 95.3482 273.742 96.0517 274.326 96.9106C274.905 97.7695 275.25 98.6963 275.358 99.691H272.287C272.179 98.8321 271.756 98.0946 271.011 97.4735C270.272 96.8572 269.05 96.5467 267.351 96.5467C264.144 96.5467 262.538 97.5123 262.538 99.4484C262.538 100.254 262.864 100.875 263.507 101.302C264.154 101.734 264.991 102.074 266.013 102.331C267.035 102.588 268.12 102.83 269.269 103.059C270.413 103.287 271.498 103.602 272.525 104.005C273.547 104.407 274.384 104.98 275.031 105.718C275.679 106.455 276 107.46 276 108.721C276 110.682 275.25 112.181 273.756 113.214C272.262 114.248 270.257 114.767 267.751 114.767L267.755 114.772Z" fill="#232323"/>
<mask id="mask0_10_755" style="mask-type:luminance" maskUnits="userSpaceOnUse" x="114" y="16" width="28" height="47">
<path d="M129.592 36.6552C124.005 31.371 122.618 23.0347 126.195 16.2366L119.791 22.6223C116.715 26.3052 114.578 30.8178 114.578 35.3305C114.578 35.3402 114.578 35.3499 114.578 35.3596C114.578 35.3693 114.578 35.379 114.578 35.3888C114.578 38.6689 115.707 41.954 117.503 44.9139C119.075 47.5002 120.676 48.985 122.784 51.0861L134.343 62.6104L139.662 57.3068C142.587 54.3905 142.587 49.6158 139.662 46.6996L129.592 36.6601V36.6552Z" fill="white"/>
</mask>
<g mask="url(#mask0_10_755)">
<path d="M142.587 16.2366H114.578V62.6104H142.587V16.2366Z" fill="url(#paint0_linear_10_755)"/>
</g>
<mask id="mask1_10_755" style="mask-type:luminance" maskUnits="userSpaceOnUse" x="117" y="18" width="25" height="44">
<path d="M129.139 37.1205C124.165 32.4138 122.404 25.339 124.365 18.9728L120.267 23.0584C119.44 24.0483 118.671 25.1207 117.989 26.2513C117.167 31.06 118.744 36.1015 122.428 39.5855L130.852 47.9849C133.091 50.217 133.091 53.8708 130.852 56.1029C129.295 57.578 132.322 59.6839 134.337 61.6879L139.199 56.8404C141.871 54.1765 141.871 49.8094 139.199 47.1455L129.134 37.1108L129.139 37.1205Z" fill="white"/>
</mask>
<g mask="url(#mask1_10_755)">
<path d="M141.877 18.973H117.167V61.6979H141.877V18.973Z" fill="url(#paint1_linear_10_755)"/>
</g>
<mask id="mask2_10_755" style="mask-type:luminance" maskUnits="userSpaceOnUse" x="124" y="13" width="13" height="24">
<path d="M126.195 16.2364C122.618 23.0346 124.005 31.3757 129.592 36.6551C128.721 35.7865 128.526 35.1266 129.612 34.0397L134.026 29.6386C136.951 26.7223 136.951 21.9476 134.026 19.0314L128.706 13.7278L126.19 16.2364H126.195Z" fill="white"/>
</mask>
<g mask="url(#mask2_10_755)">
<path d="M136.955 13.7279H122.618V36.6552H136.955V13.7279Z" fill="url(#paint2_linear_10_755)"/>
</g>
<mask id="mask3_10_755" style="mask-type:luminance" maskUnits="userSpaceOnUse" x="126" y="14" width="10" height="21">
<path d="M126.734 16.6284L128.71 14.6583L133.562 19.4961C136.23 22.1552 136.23 26.5126 133.562 29.1717L129.148 33.5727C128.846 33.8736 128.618 34.1599 128.462 34.4462C127.727 33.5242 127.104 32.5343 126.593 31.4959L128.262 29.8316C130.93 27.1725 130.93 22.8151 128.262 20.156L126.102 18.0016C126.291 17.5358 126.501 17.0796 126.734 16.6284Z" fill="white"/>
</mask>
<g mask="url(#mask3_10_755)">
<path d="M136.23 14.6583H126.097V34.451H136.23V14.6583Z" fill="url(#paint3_linear_10_755)"/>
</g>
<path fill-rule="evenodd" clip-rule="evenodd" d="M126.195 16.2364C122.618 23.0345 124.005 31.3757 129.592 36.6551C128.721 35.7865 128.526 35.1266 129.612 34.0396C126.03 28.8379 124.794 22.3843 126.19 16.2316" fill="#0086D5"/>
<mask id="mask4_10_755" style="mask-type:luminance" maskUnits="userSpaceOnUse" x="124" y="16" width="6" height="21">
<path d="M126.195 16.2364C122.618 23.0345 124.005 31.3757 129.592 36.6551C128.721 35.7865 128.526 35.1266 129.612 34.0396C126.03 28.8379 124.794 22.3843 126.19 16.2316" fill="white"/>
</mask>
<g mask="url(#mask4_10_755)">
<path d="M129.616 16.2362H122.618V36.6548H129.616V16.2362Z" fill="url(#paint4_linear_10_755)"/>
</g>
<mask id="mask5_10_755" style="mask-type:luminance" maskUnits="userSpaceOnUse" x="134" y="0" width="28" height="47">
<path d="M146.373 25.9503C151.96 31.2345 153.347 39.5708 149.77 46.3689L156.175 39.9833C159.251 36.3004 161.383 31.7877 161.387 27.275C161.387 27.2653 161.387 27.2556 161.387 27.2459C161.387 27.2362 161.387 27.2265 161.387 27.2168C161.387 23.9366 160.258 20.6516 158.462 17.6916C156.89 15.1053 155.289 13.6205 153.182 11.5195L141.628 0L136.308 5.30361C133.383 8.21986 133.383 12.9946 136.308 15.9108L146.378 25.9503H146.373Z" fill="white"/>
</mask>
<g mask="url(#mask5_10_755)">
<path d="M161.389 0H133.38V46.3738H161.389V0Z" fill="url(#paint5_linear_10_755)"/>
</g>
<mask id="mask6_10_755" style="mask-type:luminance" maskUnits="userSpaceOnUse" x="134" y="0" width="25" height="44">
<path d="M146.826 25.4896C151.8 30.1964 153.562 37.2711 151.601 43.6374L155.699 39.5517C156.526 38.5618 157.295 37.4895 157.976 36.3589C158.799 31.5502 157.222 26.5086 153.538 23.0246L145.113 14.6252C142.875 12.3932 142.875 8.73936 145.113 6.50728C146.671 5.03217 143.644 2.92626 141.629 0.922241L136.767 5.76973C134.095 8.43366 134.095 12.8008 136.767 15.4647L146.831 25.4993L146.826 25.4896Z" fill="white"/>
</mask>
<g mask="url(#mask6_10_755)">
<path d="M158.799 0.912231H134.09V43.6371H158.799V0.912231Z" fill="url(#paint6_linear_10_755)"/>
</g>
<mask id="mask7_10_755" style="mask-type:luminance" maskUnits="userSpaceOnUse" x="139" y="25" width="13" height="24">
<path d="M149.776 46.3735C153.353 39.5753 151.966 31.2342 146.379 25.9548C147.25 26.8234 147.445 27.4833 146.359 28.5702L141.945 32.9713C139.02 35.8876 139.02 40.6623 141.945 43.5785L147.265 48.8821L149.781 46.3735H149.776Z" fill="white"/>
</mask>
<g mask="url(#mask7_10_755)">
<path d="M153.354 25.9498H139.016V48.8771H153.354V25.9498Z" fill="url(#paint7_linear_10_755)"/>
</g>
<mask id="mask8_10_755" style="mask-type:luminance" maskUnits="userSpaceOnUse" x="140" y="28" width="10" height="20">
<path d="M149.235 45.976L147.259 47.946L142.407 43.1083C139.74 40.4492 139.74 36.0918 142.407 33.4327L146.821 29.0316C147.123 28.7308 147.352 28.4445 147.508 28.1582C148.242 29.0801 148.865 30.07 149.376 31.1084L147.707 32.7728C145.04 35.4319 145.04 39.7893 147.707 42.4483L149.868 44.6028C149.678 45.0686 149.469 45.5247 149.235 45.976Z" fill="white"/>
</mask>
<g mask="url(#mask8_10_755)">
<path d="M149.873 28.1586H139.74V47.9513H149.873V28.1586Z" fill="url(#paint8_linear_10_755)"/>
</g>
<path fill-rule="evenodd" clip-rule="evenodd" d="M149.775 46.3735C153.353 39.5753 151.966 31.2342 146.378 25.9548C147.25 26.8234 147.444 27.4833 146.359 28.5702C149.941 33.772 151.177 40.2256 149.78 46.3783" fill="#0086D5"/>
<mask id="mask9_10_755" style="mask-type:luminance" maskUnits="userSpaceOnUse" x="146" y="25" width="6" height="22">
<path d="M149.775 46.3735C153.353 39.5753 151.966 31.2342 146.378 25.9548C147.25 26.8234 147.444 27.4833 146.359 28.5702C149.941 33.772 151.177 40.2256 149.78 46.3783" fill="white"/>
</mask>
<g mask="url(#mask9_10_755)">
<path d="M153.353 25.9498H146.354V46.3685H153.353V25.9498Z" fill="url(#paint9_linear_10_755)"/>
</g>
<defs>
<linearGradient id="paint0_linear_10_755" x1="128.892" y1="16.4064" x2="128.113" y2="74.717" gradientUnits="userSpaceOnUse">
<stop stop-color="#FF0007"/>
<stop offset="0.1" stop-color="#FF0D06"/>
<stop offset="0.28" stop-color="#FF3205"/>
<stop offset="0.52" stop-color="#FF6D03"/>
<stop offset="0.82" stop-color="#FFBE01"/>
<stop offset="1" stop-color="#FFF200"/>
</linearGradient>
<linearGradient id="paint1_linear_10_755" x1="129.841" y1="16.4207" x2="129.067" y2="74.7265" gradientUnits="userSpaceOnUse">
<stop stop-color="#FF0007"/>
<stop offset="1" stop-color="#FFF200"/>
</linearGradient>
<linearGradient id="paint2_linear_10_755" x1="116.524" y1="38.4166" x2="147.555" y2="7.29309" gradientUnits="userSpaceOnUse">
<stop stop-color="#0086D5"/>
<stop offset="0.55" stop-color="#019EEB"/>
<stop offset="0.94" stop-color="#02B2FD"/>
</linearGradient>
<linearGradient id="paint3_linear_10_755" x1="121.848" y1="37.309" x2="143.731" y2="7.1671" gradientUnits="userSpaceOnUse">
<stop offset="0.14" stop-color="#0086D5"/>
<stop offset="0.31" stop-color="#009AE7"/>
<stop offset="0.54" stop-color="#02B2FD"/>
</linearGradient>
<linearGradient id="paint4_linear_10_755" x1="120.218" y1="32.3217" x2="146.843" y2="5.62215" gradientUnits="userSpaceOnUse">
<stop offset="0.04" stop-color="#1E76D9"/>
<stop offset="0.21" stop-color="#1B7BDC"/>
<stop offset="0.43" stop-color="#148BE5"/>
<stop offset="0.68" stop-color="#07A5F5"/>
<stop offset="0.77" stop-color="#02B2FD"/>
</linearGradient>
<linearGradient id="paint5_linear_10_755" x1="147.08" y1="46.204" x2="147.854" y2="-12.1066" gradientUnits="userSpaceOnUse">
<stop stop-color="#FF0007"/>
<stop offset="0.1" stop-color="#FF0D06"/>
<stop offset="0.28" stop-color="#FF3205"/>
<stop offset="0.52" stop-color="#FF6D03"/>
<stop offset="0.82" stop-color="#FFBE01"/>
<stop offset="1" stop-color="#FFF200"/>
</linearGradient>
<linearGradient id="paint6_linear_10_755" x1="146.126" y1="46.1894" x2="146.905" y2="-12.1164" gradientUnits="userSpaceOnUse">
<stop stop-color="#FF0007"/>
<stop offset="1" stop-color="#FFF200"/>
</linearGradient>
<linearGradient id="paint7_linear_10_755" x1="159.447" y1="24.1933" x2="128.417" y2="55.3168" gradientUnits="userSpaceOnUse">
<stop stop-color="#0086D5"/>
<stop offset="0.55" stop-color="#019EEB"/>
<stop offset="0.94" stop-color="#02B2FD"/>
</linearGradient>
<linearGradient id="paint8_linear_10_755" x1="154.122" y1="25.3005" x2="132.234" y2="55.4425" gradientUnits="userSpaceOnUse">
<stop offset="0.14" stop-color="#0086D5"/>
<stop offset="0.31" stop-color="#009AE7"/>
<stop offset="0.54" stop-color="#02B2FD"/>
</linearGradient>
<linearGradient id="paint9_linear_10_755" x1="155.747" y1="30.283" x2="129.127" y2="56.9874" gradientUnits="userSpaceOnUse">
<stop offset="0.04" stop-color="#1E76D9"/>
<stop offset="0.21" stop-color="#1B7BDC"/>
<stop offset="0.43" stop-color="#148BE5"/>
<stop offset="0.68" stop-color="#07A5F5"/>
<stop offset="0.77" stop-color="#02B2FD"/>
</linearGradient>
</defs>
</svg>
