<svg width="48" height="63" viewBox="0 0 48 63" fill="none" xmlns="http://www.w3.org/2000/svg">
<mask id="mask0_234_1109" style="mask-type:luminance" maskUnits="userSpaceOnUse" x="0" y="16" width="28" height="47">
<path d="M15.5922 36.6552C10.005 31.371 8.61796 23.0347 12.1951 16.2366L5.7903 22.6222C2.71444 26.3052 0.577881 30.8178 0.577881 35.3305C0.577881 35.3402 0.577881 35.3499 0.577881 35.3596C0.577881 35.3693 0.577881 35.379 0.577881 35.3887C0.577881 38.6689 1.707 41.954 3.50287 44.9139C5.07487 47.5002 6.67608 48.985 8.78343 51.0861L20.3423 62.6104L25.6618 57.3068C28.5867 54.3905 28.5867 49.6158 25.6618 46.6995L15.5922 36.6601V36.6552Z" fill="white"/>
</mask>
<g mask="url(#mask0_234_1109)">
<path d="M28.5867 16.2366H0.577881V62.6104H28.5867V16.2366Z" fill="url(#paint0_linear_234_1109)"/>
</g>
<mask id="mask1_234_1109" style="mask-type:luminance" maskUnits="userSpaceOnUse" x="3" y="18" width="25" height="44">
<path d="M15.1393 37.1205C10.1654 32.4137 8.40358 25.339 10.3649 18.9728L6.26702 23.0584C5.43965 24.0483 4.67069 25.1207 3.98933 26.2513C3.16682 31.0599 4.74369 36.1015 8.42792 39.5855L16.8525 47.9849C19.0912 50.217 19.0912 53.8708 16.8525 56.1029C15.2951 57.578 18.3223 59.6839 20.3372 61.6879L25.1992 56.8404C27.8711 54.1765 27.8711 49.8094 25.1992 47.1454L15.1345 37.1108L15.1393 37.1205Z" fill="white"/>
</mask>
<g mask="url(#mask1_234_1109)">
<path d="M27.8764 18.973H3.1673V61.6978H27.8764V18.973Z" fill="url(#paint1_linear_234_1109)"/>
</g>
<mask id="mask2_234_1109" style="mask-type:luminance" maskUnits="userSpaceOnUse" x="10" y="13" width="13" height="24">
<path d="M12.195 16.2364C8.61783 23.0346 10.0049 31.3757 15.5921 36.6551C14.7209 35.7865 14.5262 35.1266 15.6115 34.0397L20.0258 29.6386C22.9508 26.7223 22.9508 21.9476 20.0258 19.0314L14.7063 13.7278L12.1901 16.2364H12.195Z" fill="white"/>
</mask>
<g mask="url(#mask2_234_1109)">
<path d="M22.9555 13.7279H8.61768V36.6552H22.9555V13.7279Z" fill="url(#paint2_linear_234_1109)"/>
</g>
<mask id="mask3_234_1109" style="mask-type:luminance" maskUnits="userSpaceOnUse" x="12" y="14" width="10" height="21">
<path d="M12.7341 16.6284L14.7101 14.6583L19.5624 19.4961C22.2294 22.1552 22.2294 26.5126 19.5624 29.1717L15.1481 33.5727C14.8464 33.8736 14.6176 34.1599 14.4619 34.4461C13.727 33.5242 13.104 32.5343 12.593 31.4959L14.2623 29.8316C16.9294 27.1725 16.9294 22.8151 14.2623 20.156L12.1014 18.0016C12.2912 17.5357 12.5005 17.0796 12.7341 16.6284Z" fill="white"/>
</mask>
<g mask="url(#mask3_234_1109)">
<path d="M22.2294 14.6583H12.0966V34.451H22.2294V14.6583Z" fill="url(#paint3_linear_234_1109)"/>
</g>
<path fill-rule="evenodd" clip-rule="evenodd" d="M12.195 16.2364C8.61783 23.0345 10.0049 31.3757 15.5921 36.655C14.7209 35.7864 14.5262 35.1265 15.6115 34.0396C12.0295 28.8379 10.7933 22.3843 12.1901 16.2315" fill="#0086D5"/>
<mask id="mask4_234_1109" style="mask-type:luminance" maskUnits="userSpaceOnUse" x="10" y="16" width="6" height="21">
<path d="M12.195 16.2364C8.61783 23.0345 10.0049 31.3757 15.5921 36.655C14.7209 35.7864 14.5262 35.1265 15.6115 34.0396C12.0295 28.8379 10.7933 22.3843 12.1901 16.2315" fill="white"/>
</mask>
<g mask="url(#mask4_234_1109)">
<path d="M15.6162 16.2362H8.61768V36.6548H15.6162V16.2362Z" fill="url(#paint4_linear_234_1109)"/>
</g>
<mask id="mask5_234_1109" style="mask-type:luminance" maskUnits="userSpaceOnUse" x="20" y="0" width="28" height="47">
<path d="M32.3729 25.9503C37.9601 31.2345 39.3471 39.5708 35.77 46.369L42.1748 39.9833C45.2506 36.3004 47.3823 31.7877 47.3872 27.275C47.3872 27.2653 47.3872 27.2556 47.3872 27.2459C47.3872 27.2362 47.3872 27.2265 47.3872 27.2168C47.3872 23.9366 46.2581 20.6516 44.4622 17.6916C42.8902 15.1053 41.289 13.6205 39.1816 11.5195L27.6277 1.52588e-05L22.3082 5.30362C19.3832 8.21988 19.3832 12.9946 22.3082 15.9108L32.3777 25.9503H32.3729Z" fill="white"/>
</mask>
<g mask="url(#mask5_234_1109)">
<path d="M47.3883 3.05176e-05H19.3794V46.3738H47.3883V3.05176e-05Z" fill="url(#paint5_linear_234_1109)"/>
</g>
<mask id="mask6_234_1109" style="mask-type:luminance" maskUnits="userSpaceOnUse" x="20" y="0" width="25" height="44">
<path d="M32.8262 25.4897C37.8001 30.1965 39.5619 37.2712 37.6006 43.6375L41.6985 39.5518C42.5258 38.5619 43.2948 37.4895 43.9762 36.359C44.7987 31.5503 43.2218 26.5087 39.5376 23.0247L31.113 14.6253C28.8743 12.3932 28.8743 8.73944 31.113 6.50736C32.6704 5.03225 29.6432 2.92633 27.6283 0.922318L22.7663 5.7698C20.0944 8.43374 20.0944 12.8008 22.7663 15.4648L32.831 25.4994L32.8262 25.4897Z" fill="white"/>
</mask>
<g mask="url(#mask6_234_1109)">
<path d="M44.799 0.912308H20.0899V43.6372H44.799V0.912308Z" fill="url(#paint6_linear_234_1109)"/>
</g>
<mask id="mask7_234_1109" style="mask-type:luminance" maskUnits="userSpaceOnUse" x="25" y="25" width="13" height="24">
<path d="M35.7759 46.3735C39.3531 39.5754 37.966 31.2342 32.3789 25.9548C33.25 26.8234 33.4447 27.4833 32.3594 28.5703L27.9451 32.9713C25.0202 35.8876 25.0202 40.6623 27.9451 43.5785L33.2646 48.8821L35.7808 46.3735H35.7759Z" fill="white"/>
</mask>
<g mask="url(#mask7_234_1109)">
<path d="M39.354 25.9498H25.0162V48.8771H39.354V25.9498Z" fill="url(#paint7_linear_234_1109)"/>
</g>
<mask id="mask8_234_1109" style="mask-type:luminance" maskUnits="userSpaceOnUse" x="26" y="28" width="10" height="20">
<path d="M35.2351 45.9759L33.2591 47.946L28.4068 43.1082C25.7398 40.4491 25.7398 36.0917 28.4068 33.4327L32.8211 29.0316C33.1228 28.7307 33.3516 28.4444 33.5073 28.1582C34.2422 29.0801 34.8652 30.07 35.3762 31.1084L33.7069 32.7727C31.0398 35.4318 31.0398 39.7892 33.7069 42.4483L35.8678 44.6027C35.678 45.0686 35.4687 45.5247 35.2351 45.9759Z" fill="white"/>
</mask>
<g mask="url(#mask8_234_1109)">
<path d="M35.8729 28.1585H25.7401V47.9512H35.8729V28.1585Z" fill="url(#paint8_linear_234_1109)"/>
</g>
<path fill-rule="evenodd" clip-rule="evenodd" d="M35.7752 46.3735C39.3523 39.5754 37.9653 31.2342 32.3781 25.9548C33.2493 26.8234 33.444 27.4833 32.3586 28.5703C35.9407 33.772 37.1768 40.2256 35.7801 46.3783" fill="#0086D5"/>
<mask id="mask9_234_1109" style="mask-type:luminance" maskUnits="userSpaceOnUse" x="32" y="25" width="6" height="22">
<path d="M35.7752 46.3735C39.3523 39.5754 37.9653 31.2342 32.3781 25.9548C33.2493 26.8234 33.444 27.4833 32.3586 28.5703C35.9407 33.772 37.1768 40.2256 35.7801 46.3783" fill="white"/>
</mask>
<g mask="url(#mask9_234_1109)">
<path d="M39.3523 25.9498H32.3538V46.3684H39.3523V25.9498Z" fill="url(#paint9_linear_234_1109)"/>
</g>
<defs>
<linearGradient id="paint0_linear_234_1109" x1="14.8914" y1="16.4064" x2="14.1125" y2="74.717" gradientUnits="userSpaceOnUse">
<stop stop-color="#FF0007"/>
<stop offset="0.1" stop-color="#FF0D06"/>
<stop offset="0.28" stop-color="#FF3205"/>
<stop offset="0.52" stop-color="#FF6D03"/>
<stop offset="0.82" stop-color="#FFBE01"/>
<stop offset="1" stop-color="#FFF200"/>
</linearGradient>
<linearGradient id="paint1_linear_234_1109" x1="15.8406" y1="16.4206" x2="15.0666" y2="74.7264" gradientUnits="userSpaceOnUse">
<stop stop-color="#FF0007"/>
<stop offset="1" stop-color="#FFF200"/>
</linearGradient>
<linearGradient id="paint2_linear_234_1109" x1="2.52435" y1="38.4166" x2="33.5549" y2="7.29305" gradientUnits="userSpaceOnUse">
<stop stop-color="#0086D5"/>
<stop offset="0.55" stop-color="#019EEB"/>
<stop offset="0.94" stop-color="#02B2FD"/>
</linearGradient>
<linearGradient id="paint3_linear_234_1109" x1="7.84778" y1="37.309" x2="29.731" y2="7.16707" gradientUnits="userSpaceOnUse">
<stop offset="0.14" stop-color="#0086D5"/>
<stop offset="0.31" stop-color="#009AE7"/>
<stop offset="0.54" stop-color="#02B2FD"/>
</linearGradient>
<linearGradient id="paint4_linear_234_1109" x1="6.21831" y1="32.3217" x2="32.843" y2="5.62211" gradientUnits="userSpaceOnUse">
<stop offset="0.04" stop-color="#1E76D9"/>
<stop offset="0.21" stop-color="#1B7BDC"/>
<stop offset="0.43" stop-color="#148BE5"/>
<stop offset="0.68" stop-color="#07A5F5"/>
<stop offset="0.77" stop-color="#02B2FD"/>
</linearGradient>
<linearGradient id="paint5_linear_234_1109" x1="33.0796" y1="46.204" x2="33.8537" y2="-12.1066" gradientUnits="userSpaceOnUse">
<stop stop-color="#FF0007"/>
<stop offset="0.1" stop-color="#FF0D06"/>
<stop offset="0.28" stop-color="#FF3205"/>
<stop offset="0.52" stop-color="#FF6D03"/>
<stop offset="0.82" stop-color="#FFBE01"/>
<stop offset="1" stop-color="#FFF200"/>
</linearGradient>
<linearGradient id="paint6_linear_234_1109" x1="32.1257" y1="46.1895" x2="32.9046" y2="-12.1163" gradientUnits="userSpaceOnUse">
<stop stop-color="#FF0007"/>
<stop offset="1" stop-color="#FFF200"/>
</linearGradient>
<linearGradient id="paint7_linear_234_1109" x1="45.4474" y1="24.1933" x2="14.4168" y2="55.3168" gradientUnits="userSpaceOnUse">
<stop stop-color="#0086D5"/>
<stop offset="0.55" stop-color="#019EEB"/>
<stop offset="0.94" stop-color="#02B2FD"/>
</linearGradient>
<linearGradient id="paint8_linear_234_1109" x1="40.1217" y1="25.3005" x2="18.2335" y2="55.4425" gradientUnits="userSpaceOnUse">
<stop offset="0.14" stop-color="#0086D5"/>
<stop offset="0.31" stop-color="#009AE7"/>
<stop offset="0.54" stop-color="#02B2FD"/>
</linearGradient>
<linearGradient id="paint9_linear_234_1109" x1="41.7468" y1="30.2829" x2="15.127" y2="56.9873" gradientUnits="userSpaceOnUse">
<stop offset="0.04" stop-color="#1E76D9"/>
<stop offset="0.21" stop-color="#1B7BDC"/>
<stop offset="0.43" stop-color="#148BE5"/>
<stop offset="0.68" stop-color="#07A5F5"/>
<stop offset="0.77" stop-color="#02B2FD"/>
</linearGradient>
</defs>
</svg>
