<svg width="276" height="28" viewBox="0 0 276 28" fill="none" xmlns="http://www.w3.org/2000/svg">
<path d="M0 27.452V0.75927H12.8193C15.5691 0.75927 17.7592 1.51138 19.3896 3.01561C21.02 4.51983 21.8377 6.55296 21.8377 9.10529C21.8377 10.8279 21.5067 12.1962 20.8448 13.2201C20.1829 14.2439 19.3556 15.0154 18.3579 15.5395C17.3601 16.0635 16.3624 16.4469 15.3647 16.6895L22.4022 27.4568H18.8056L12.3375 17.2136H3.03692V27.4568H0.0048642L0 27.452ZM3.03206 14.3458H12.2937C13.2622 14.3458 14.2502 14.2002 15.2479 13.9043C16.2456 13.6083 17.0876 13.0794 17.7738 12.3127C18.4601 11.546 18.8056 10.4785 18.8056 9.10529C18.8056 7.41183 18.2264 6.07258 17.0681 5.09241C15.9098 4.11224 14.3719 3.62215 12.4592 3.62215H3.03692V14.3458H3.03206Z" fill="#232323"/>
<path d="M35.791 27.7721C33.742 27.7721 31.951 27.3063 30.4131 26.3795C28.8751 25.4527 27.6827 24.1959 26.8359 22.6092C25.9842 21.0225 25.5608 19.2757 25.5608 17.3687C25.5608 15.4617 25.9647 13.6809 26.7726 12.1087C27.5805 10.5366 28.7389 9.28469 30.2525 8.35789C31.7661 7.4311 33.5425 6.96527 35.5914 6.96527C37.6404 6.96527 39.4508 7.4311 40.9498 8.35789C42.444 9.28469 43.5974 10.5366 44.4053 12.1087C45.2132 13.6809 45.6172 15.4375 45.6172 17.3687V18.5769H28.6707C28.8313 19.7609 29.2158 20.843 29.8242 21.8231C30.4325 22.8033 31.2453 23.5845 32.2722 24.162C33.2943 24.7394 34.4818 25.0305 35.8299 25.0305C37.2608 25.0305 38.458 24.7151 39.4265 24.0843C40.395 23.4535 41.1494 22.6383 41.6896 21.6436H45.004C44.3031 23.4438 43.1886 24.9189 41.6653 26.0592C40.1419 27.2044 38.1806 27.7721 35.7812 27.7721H35.791ZM28.7145 15.7577H42.4634C42.1958 14.04 41.4657 12.5988 40.2782 11.444C39.0907 10.2891 37.5284 9.71169 35.5865 9.71169C33.6447 9.71169 32.0873 10.2891 30.9144 11.444C29.7414 12.5988 29.0065 14.04 28.7097 15.7577H28.7145Z" fill="#232323"/>
<path d="M55.7257 27.4516L47.7975 7.29018H51.1119L57.5021 24.2248L63.8534 7.29018H67.1677L59.2834 27.4516H55.7257Z" fill="#232323"/>
<path d="M79.4664 27.7721C77.4174 27.7721 75.6264 27.3063 74.0885 26.3795C72.5505 25.4527 71.3582 24.1959 70.5113 22.6092C69.6645 21.0225 69.2362 19.2757 69.2362 17.3687C69.2362 15.4617 69.6402 13.6809 70.4481 12.1087C71.256 10.5366 72.4143 9.28469 73.9279 8.35789C75.4366 7.4311 77.2179 6.96527 79.2668 6.96527C81.3158 6.96527 83.1311 7.4311 84.6253 8.35789C86.1194 9.28469 87.2728 10.5366 88.0807 12.1087C88.8886 13.6809 89.2926 15.4375 89.2926 17.3687V18.5769H72.3461C72.5068 19.7609 72.8912 20.843 73.4996 21.8231C74.108 22.8033 74.9207 23.5845 75.9476 24.162C76.9745 24.7394 78.1572 25.0305 79.5053 25.0305C80.9362 25.0305 82.1334 24.7151 83.1068 24.0843C84.0802 23.4535 84.8297 22.6383 85.3699 21.6436H88.6842C87.9834 23.4438 86.8689 24.9189 85.3456 26.0592C83.8222 27.2044 81.8609 27.7721 79.4615 27.7721H79.4664ZM72.3899 15.7577H86.1389C85.8712 14.04 85.1411 12.5988 83.9536 11.444C82.7661 10.2891 81.2039 9.71169 79.262 9.71169C77.3201 9.71169 75.7627 10.2891 74.5898 11.444C73.4169 12.5988 72.682 14.04 72.3851 15.7577H72.3899Z" fill="#232323"/>
<path d="M93.9014 27.4518V7.29038H96.9334V10.4347C97.6635 9.46908 98.5492 8.64903 99.6005 7.97456C100.652 7.30008 102 6.96527 103.645 6.96527C105.047 6.96527 106.361 7.29523 107.587 7.95515C108.813 8.61507 109.811 9.59524 110.58 10.9005C111.349 12.2058 111.734 13.8119 111.734 15.7189V27.4518H108.702V15.8014C108.702 13.9721 108.176 12.5018 107.125 11.3858C106.073 10.2697 104.711 9.71169 103.041 9.71169C101.907 9.71169 100.885 9.96887 99.9704 10.4784C99.0554 10.9879 98.3205 11.706 97.7657 12.6377C97.2108 13.5693 96.9383 14.632 96.9383 15.8451V27.4567H93.9062L93.9014 27.4518Z" fill="#232323"/>
<path d="M125.565 27.7719C124.193 27.7719 122.884 27.4419 121.643 26.782C120.402 26.1221 119.399 25.1419 118.63 23.8366C117.861 22.5313 117.477 20.9252 117.477 19.0182V7.28529H120.509V18.9358C120.509 20.7651 121.039 22.2353 122.105 23.3514C123.171 24.4674 124.524 25.0254 126.169 25.0254C127.303 25.0254 128.325 24.7634 129.245 24.2394C130.16 23.7153 130.895 22.9972 131.449 22.0801C131.999 21.1678 132.277 20.1052 132.277 18.8969V7.28529H135.309V27.4468H132.277V24.3024C131.547 25.2681 130.661 26.0881 129.61 26.7626C128.558 27.4322 127.21 27.7719 125.565 27.7719Z" fill="#232323"/>
<path d="M150.44 27.7721C148.391 27.7721 146.6 27.3063 145.062 26.3795C143.524 25.4527 142.331 24.1959 141.484 22.6092C140.638 21.0225 140.209 19.2757 140.209 17.3687C140.209 15.4617 140.613 13.6809 141.421 12.1087C142.229 10.5366 143.387 9.28469 144.901 8.35789C146.41 7.4311 148.191 6.96527 150.24 6.96527C152.289 6.96527 154.104 7.4311 155.598 8.35789C157.093 9.28469 158.246 10.5366 159.054 12.1087C159.862 13.6809 160.266 15.4375 160.266 17.3687V18.5769H143.319C143.48 19.7609 143.864 20.843 144.473 21.8231C145.081 22.8033 145.894 23.5845 146.921 24.162C147.948 24.7394 149.13 25.0305 150.478 25.0305C151.909 25.0305 153.107 24.7151 154.08 24.0843C155.053 23.4535 155.803 22.6383 156.343 21.6436H159.657C158.957 23.4438 157.842 24.9189 156.319 26.0592C154.795 27.2044 152.834 27.7721 150.435 27.7721H150.44ZM143.363 15.7577H157.112C156.844 14.04 156.114 12.5988 154.927 11.444C153.739 10.2891 152.177 9.71169 150.235 9.71169C148.293 9.71169 146.736 10.2891 145.563 11.444C144.39 12.5988 143.655 14.04 143.358 15.7577H143.363Z" fill="#232323"/>
<path d="M165.522 27.452V0.75927H169.041L178.624 13.419L188.046 0.75927H191.565V27.452H188.533V5.35443L178.624 18.053L168.554 5.35443V27.452H165.522Z" fill="#232323"/>
<path d="M206.896 27.7721C204.93 27.7721 203.207 27.3063 201.742 26.3795C200.272 25.4527 199.133 24.1959 198.325 22.6092C197.518 21.0225 197.114 19.2757 197.114 17.3687C197.114 15.4617 197.518 13.6809 198.325 12.1087C199.133 10.5366 200.272 9.28469 201.742 8.35789C203.212 7.4311 204.93 6.96527 206.896 6.96527C208.565 6.96527 210.001 7.29038 211.203 7.93089C212.4 8.57625 213.379 9.44967 214.133 10.5511V7.28553H217.165V27.447H214.133V24.2202C213.379 25.2974 212.4 26.1563 211.203 26.8016C210.001 27.447 208.565 27.7672 206.896 27.7672V27.7721ZM207.3 25.0305C208.809 25.0305 210.084 24.6812 211.12 23.9824C212.157 23.2837 212.946 22.3472 213.486 21.1826C214.026 20.0132 214.294 18.7419 214.294 17.3735C214.294 16.0052 214.026 14.6999 213.486 13.545C212.946 12.3902 212.157 11.4634 211.12 10.7647C210.084 10.0659 208.809 9.71655 207.3 9.71655C205.791 9.71655 204.536 10.0659 203.46 10.7647C202.38 11.4634 201.557 12.3902 200.993 13.545C200.428 14.6999 200.141 15.9761 200.141 17.3735C200.141 18.771 200.423 20.0132 200.993 21.1826C201.557 22.352 202.38 23.2837 203.46 23.9824C204.536 24.6812 205.82 25.0305 207.3 25.0305Z" fill="#232323"/>
<path d="M225.497 27.4516V9.95403H221.37V7.29495H225.497V0.0795212H228.529V7.29495H233.182V9.95403H228.529V27.4516H225.497Z" fill="#232323"/>
<path d="M245.957 27.7721C243.908 27.7721 242.117 27.3063 240.579 26.3795C239.041 25.4527 237.849 24.1959 237.002 22.6092C236.15 21.0225 235.727 19.2757 235.727 17.3687C235.727 15.4617 236.131 13.6809 236.939 12.1087C237.746 10.5366 238.905 9.28469 240.418 8.35789C241.927 7.4311 243.708 6.96527 245.757 6.96527C247.806 6.96527 249.617 7.4311 251.116 8.35789C252.61 9.28469 253.763 10.5366 254.571 12.1087C255.379 13.6809 255.783 15.4375 255.783 17.3687V18.5769H238.837C238.997 19.7609 239.382 20.843 239.99 21.8231C240.598 22.8033 241.411 23.5845 242.438 24.162C243.46 24.7394 244.648 25.0305 245.996 25.0305C247.427 25.0305 248.624 24.7151 249.592 24.0843C250.566 23.4535 251.315 22.6383 251.856 21.6436H255.17C254.469 23.4438 253.355 24.9189 251.831 26.0592C250.308 27.2044 248.347 27.7721 245.947 27.7721H245.957ZM238.88 15.7577H252.629C252.362 14.04 251.632 12.5988 250.444 11.444C249.257 10.2891 247.694 9.71169 245.752 9.71169C243.811 9.71169 242.253 10.2891 241.08 11.444C239.907 12.5988 239.172 14.04 238.876 15.7577H238.88Z" fill="#232323"/>
<path d="M267.756 27.7721C265.896 27.7721 264.324 27.4616 263.044 26.8453C261.764 26.2291 260.786 25.4139 260.115 24.4046C259.438 23.3953 259.063 22.3036 258.981 21.1196H262.134C262.217 21.7941 262.451 22.4443 262.84 23.0751C263.229 23.7059 263.833 24.2202 264.641 24.6084C265.449 24.9966 266.5 25.1956 267.794 25.1956C268.198 25.1956 268.7 25.1567 269.289 25.0742C269.882 24.9918 270.457 24.8462 271.007 24.6327C271.557 24.4192 272.024 24.0941 272.403 23.6671C272.783 23.2352 272.968 22.6869 272.968 22.0124C272.968 21.1778 272.642 20.5325 271.999 20.0763C271.352 19.6202 270.515 19.266 269.493 19.0088C268.466 18.7516 267.381 18.5042 266.237 18.2616C265.089 18.0189 264.008 17.7035 262.981 17.3154C261.954 16.9272 261.122 16.374 260.475 15.6607C259.827 14.9474 259.506 13.9721 259.506 12.7396C259.506 10.9103 260.173 9.49339 261.506 8.4841C262.84 7.47481 264.816 6.97017 267.429 6.97017C269.211 6.97017 270.656 7.24675 271.776 7.79507C272.895 8.34823 273.742 9.05182 274.326 9.91069C274.905 10.7696 275.251 11.6963 275.358 12.6911H272.287C272.18 11.8322 271.756 11.0947 271.011 10.4736C270.272 9.85731 269.05 9.54676 267.352 9.54676C264.144 9.54676 262.538 10.5124 262.538 12.4485C262.538 13.2539 262.864 13.875 263.507 14.3021C264.154 14.7339 264.991 15.0736 266.013 15.3308C267.035 15.5879 268.121 15.8305 269.269 16.0586C270.413 16.2867 271.498 16.6021 272.525 17.0048C273.547 17.4076 274.384 17.9801 275.032 18.7177C275.679 19.4552 276 20.4597 276 21.7213C276 23.6816 275.251 25.181 273.756 26.2145C272.262 27.2481 270.257 27.7673 267.751 27.7673L267.756 27.7721Z" fill="#232323"/>
</svg>
