<svg aria-hidden="true" xmlns="http://www.w3.org/2000/svg" xmlns:xlink="http://www.w3.org/1999/xlink"><symbol viewBox="0 0 25 25" id="best-price" xmlns="http://www.w3.org/2000/svg">
<g clip-path="url(#aclip0_1_46)">
<path d="M20.8594 6.64038L19.0625 3.51538C18.0469 1.79663 16.25 0.781006 14.2969 0.781006H10.7031C8.75 0.781006 6.95312 1.79663 5.9375 3.51538L4.14062 6.64038C3.20312 8.35913 3.20312 10.3904 4.14062 12.1091L5.9375 15.2341C6.875 16.9529 8.75 17.9685 10.7031 17.9685H14.2969C16.25 17.9685 18.0469 16.9529 19.0625 15.2341L20.8594 12.1091C21.7969 10.3904 21.7969 8.35913 20.8594 6.64038ZM13.2812 12.4216C13.2812 12.8904 12.9688 13.281 12.5 13.281C12.0312 13.281 11.7188 12.9685 11.7188 12.4998C11.25 12.4998 10.9375 12.1873 10.9375 11.7185C10.9375 11.2498 11.25 10.9373 11.7188 10.9373H12.8906C13.125 10.9373 13.2812 10.781 13.2812 10.5466C13.2812 10.3123 13.125 10.156 12.8906 10.156H12.1094C11.0156 10.156 10.1562 9.29663 10.1562 8.20288C10.1562 7.26538 10.8594 6.48413 11.7188 6.32788V6.24976C11.7188 5.78101 12.0312 5.46851 12.5 5.46851C12.9688 5.46851 13.2812 5.78101 13.2812 6.24976C13.75 6.24976 14.0625 6.56226 14.0625 7.03101C14.0625 7.49976 13.75 7.81226 13.2812 7.81226H12.1094C11.875 7.81226 11.7188 7.96851 11.7188 8.20288C11.7188 8.43726 11.875 8.59351 12.1094 8.59351H12.8906C13.9844 8.59351 14.8438 9.45288 14.8438 10.5466C14.8438 11.4841 14.1406 12.2654 13.2812 12.4216Z"/>
<path d="M14.2969 19.531H10.7031C9.375 19.531 8.125 19.1404 7.03125 18.5154V23.4373C7.03125 23.6716 7.1875 23.9841 7.42188 24.1404C7.65625 24.2966 7.96875 24.2966 8.20312 24.1404L12.5781 21.9529L16.9531 24.1404C16.9531 24.2185 17.0312 24.2185 17.1875 24.2185C17.3438 24.2185 17.5 24.2185 17.5781 24.1404C17.8125 23.9841 17.9688 23.7498 17.9688 23.4373V18.5154C16.875 19.1404 15.625 19.531 14.2969 19.531Z"/>
</g>
<defs>
<clipPath id="aclip0_1_46">
<rect width="25" height="25" transform="translate(0 -0.000244141)"/>
</clipPath>
</defs>
</symbol><symbol viewBox="0 0 19 18" id="cashback" xmlns="http://www.w3.org/2000/svg">
<g clip-path="url(#bclip0_1_63)">
<path d="M1.3725 6.21487C1.8399 4.53536 2.86324 3.05517 4.25632 1.96233C5.72806 0.807627 7.614 0.0817641 9.69412 0.00618996C12.1634 -0.083093 14.4396 0.762283 16.123 2.20206C17.806 3.64113 18.8958 5.6739 18.9927 7.95799C19.0292 8.81532 18.9243 9.64488 18.6986 10.427C18.5154 11.0588 18.2513 11.6682 17.912 12.2422C17.7586 12.0215 17.5597 11.8311 17.3266 11.6817C17.0934 11.5324 16.8307 11.4271 16.5535 11.3718C16.7872 10.9507 16.9753 10.5026 17.111 10.0347C17.2968 9.39074 17.383 8.71268 17.3538 8.01705C17.2747 6.14949 16.3848 4.48826 15.0111 3.31388C13.6374 2.13914 11.7773 1.44913 9.75834 1.52224C8.06088 1.58411 6.52036 2.1771 5.31728 3.1216C4.21756 3.98455 3.3998 5.14101 3.00194 6.45214L3.72394 6.55794C3.95802 6.59133 4.11876 6.7945 4.08228 7.01068C4.0667 7.10559 4.0154 7.18714 3.94358 7.24619L2.01926 8.83149C1.8418 8.97737 1.56972 8.96295 1.41202 8.7988C1.38542 8.77138 1.36414 8.74186 1.34742 8.71057L0.0588437 6.67956C-0.0608563 6.49045 0.00792372 6.24721 0.211984 6.13613C0.302044 6.08727 0.403504 6.07251 0.499264 6.08727L1.3725 6.21487ZM4.17006 16.3284V11.5142C6.7381 11.5142 7.17396 11.407 9.48854 12.7543H11.3072C12.1303 12.7997 12.5616 13.5719 11.7613 14.0791C11.1241 14.5119 10.2824 14.4872 9.41976 14.4155C8.82468 14.3881 8.7996 15.1277 9.41976 15.1302C9.6356 15.1456 9.8693 15.0989 10.0734 15.0989C11.1491 15.0975 12.0361 14.9069 12.5787 14.1206L12.8508 13.5329L15.556 12.2928C16.9092 11.8808 17.8721 13.1898 16.8742 14.1013C14.9146 15.4198 12.9055 16.5045 10.8505 17.3809C9.35782 18.2206 7.8648 18.1918 6.3733 17.3809L4.17006 16.3284ZM0.161064 11.0513H3.46516V16.8121H0.161064V11.0513ZM9.77278 11.8668C9.20734 11.3933 9.14388 10.5866 9.63826 10.0417C10.1444 9.48354 11.0435 9.41113 11.6469 9.87933C12.25 10.3475 12.3287 11.1796 11.8225 11.7374C11.7655 11.7999 11.7026 11.8576 11.6344 11.9096C11.0332 11.7989 10.3656 11.8657 9.77278 11.8668ZM5.96442 10.6379L7.49658 3.97155L13.6142 5.244L13.4413 5.99588L9.07054 5.08688L9.01354 5.07352C8.58946 4.98951 8.17146 5.24014 8.08102 5.63312L7.99742 5.99623L7.9845 5.99377L7.59994 7.72459L6.9129 10.7152C6.61764 10.6709 6.3106 10.6488 5.96442 10.6379ZM7.51216 10.8411L8.71942 5.58848L14.8367 6.86094L13.6108 12.1965L12.8158 12.561C12.7474 12.4766 12.6691 12.3979 12.5821 12.3258L13.4341 8.48631C12.9351 8.38297 12.6205 7.92249 12.7326 7.46307L10.3131 6.96182C10.2014 7.42335 9.704 7.71405 9.20734 7.6107L8.41694 11.1704C8.09204 11.0256 7.79906 10.9194 7.51216 10.8411Z"/>
</g>
<defs>
<clipPath id="bclip0_1_63">
<rect width="19" height="18" transform="translate(0 -0.000244141)"/>
</clipPath>
</defs>
</symbol><symbol viewBox="0 0 20 20" id="coins-hand" xmlns="http://www.w3.org/2000/svg">
<path d="M12.8125 9.375C14.3658 9.375 15.625 8.1158 15.625 6.5625C15.625 5.0092 14.3658 3.75 12.8125 3.75C11.2592 3.75 10 5.0092 10 6.5625C10 8.1158 11.2592 9.375 12.8125 9.375Z"/>
<path d="M18.6875 10.3125C18.5625 10.125 18.375 10 18.125 10C16.75 10 15.4375 10.625 14.625 11.75L14.0625 12.5C13.375 13.3125 12.3125 13.75 11.25 13.75H9.375C9 13.75 8.75 13.5 8.75 13.125C8.75 12.75 9 12.5 9.375 12.5H10.5625C11.5625 12.5 12.5 11.6875 12.5 10.6875V10.625C12.5 10.3125 12.1875 10 11.875 10H8.0625C5.8125 10 4 11 3 12.625L1.3125 15.25C1.1875 15.4375 1.1875 15.6875 1.3125 15.875L3.1875 19C3.25 19.125 3.4375 19.25 3.5625 19.3125C3.625 19.3125 3.625 19.3125 3.6875 19.3125C3.8125 19.3125 3.9375 19.25 4.0625 19.1875C6.4375 17.625 9.1875 16.8125 12 16.8125C14.0625 16.8125 15.9375 15.6875 16.9375 13.875L18.625 10.875C18.75 10.75 18.75 10.5 18.6875 10.3125Z"/>
<path d="M8.75 6.5625C8.75 5 9.6875 3.625 11 2.9375C10.5625 1.9375 9.5625 1.25 8.4375 1.25C6.875 1.25 5.625 2.5 5.625 4.0625C5.625 5.625 6.875 6.875 8.4375 6.875C8.5625 6.875 8.625 6.875 8.75 6.8125C8.75 6.75 8.75 6.6875 8.75 6.5625Z"/>
</symbol><symbol viewBox="0 0 21 21" id="facebook" xmlns="http://www.w3.org/2000/svg">
<g clip-path="url(#dclip0_12_836)">
<path d="M20.8 10.5632C20.8 15.7537 16.9919 20.0567 12.0207 20.8375V13.5896H14.4378L14.898 10.5909H12.0207V8.64527C12.0207 7.82454 12.4228 7.02547 13.7107 7.02547H15.0185V4.47227C15.0185 4.47227 13.8311 4.26947 12.6967 4.26947C10.3272 4.26947 8.77933 5.70554 8.77933 8.30467V10.5901H6.14553V13.5887H8.77933V20.8367C3.809 20.0549 0 15.7528 0 10.5632C0 4.81981 4.6566 0.163208 10.4 0.163208C16.1434 0.163208 20.8 4.81894 20.8 10.5632Z"/>
</g>
<defs>
<clipPath id="dclip0_12_836">
<rect width="20.8" height="20.8" transform="translate(0 0.0999756)"/>
</clipPath>
</defs>
</symbol><symbol viewBox="0 0 18 18" id="graph-up" xmlns="http://www.w3.org/2000/svg">
<g clip-path="url(#eclip0_1_58)">
<path d="M12.3968 0.539795H0.754395V16.2988H1.33399V1.40919C1.33399 1.33295 1.36403 1.25978 1.4176 1.20554C1.47117 1.15129 1.54396 1.12034 1.62019 1.11939H12.3968V0.539795Z"/>
<path d="M9.51317 12.7797C9.51743 11.6997 9.94173 10.6638 10.6963 9.89107C11.4508 9.11838 12.4764 8.6696 13.556 8.63968V1.70068H1.91357V17.4597H13.556V16.9377C12.4733 16.9077 11.445 16.4564 10.69 15.6798C9.93498 14.9033 9.51276 13.8628 9.51317 12.7797ZM2.50397 8.87908L3.97457 5.63908C3.99556 5.59259 4.02844 5.55246 4.0699 5.52275C4.11136 5.49304 4.15993 5.4748 4.2107 5.46986C4.26147 5.46493 4.31264 5.47349 4.35904 5.49467C4.40544 5.51585 4.44544 5.5489 4.47497 5.59048L6.55397 8.54788L11.18 3.84088H10.0568C9.98363 3.83512 9.91534 3.802 9.86553 3.74812C9.81573 3.69424 9.78807 3.62356 9.78807 3.55018C9.78807 3.47681 9.81573 3.40613 9.86553 3.35225C9.91534 3.29837 9.98363 3.26524 10.0568 3.25948H11.8802C11.9059 3.25986 11.9313 3.26411 11.9558 3.27208H11.9738C11.9966 3.27934 12.0184 3.28963 12.0386 3.30268C12.0596 3.31592 12.0784 3.33231 12.0944 3.35128L12.1052 3.36568C12.1375 3.40546 12.1581 3.45346 12.1646 3.50428C12.1646 3.50428 12.1646 3.51688 12.1646 3.52408C12.1646 3.53128 12.1646 3.53668 12.1646 3.54388V5.30788C12.1646 5.38474 12.134 5.45846 12.0797 5.5128C12.0253 5.56715 11.9516 5.59768 11.8748 5.59768C11.7979 5.59768 11.7242 5.56715 11.6699 5.5128C11.6155 5.45846 11.585 5.38474 11.585 5.30788V4.26028L6.72497 9.20308C6.69522 9.23356 6.65912 9.2571 6.61924 9.27203C6.57935 9.28697 6.53667 9.29293 6.49422 9.28949C6.45177 9.28606 6.4106 9.2733 6.37364 9.25215C6.33668 9.23099 6.30483 9.20195 6.28037 9.16708L4.30037 6.33748L3.04037 9.12028C3.01719 9.17093 2.97991 9.21383 2.93298 9.24384C2.88606 9.27384 2.83147 9.28969 2.77577 9.28948C2.7348 9.28997 2.69422 9.28136 2.65697 9.26428C2.62135 9.24939 2.58906 9.22753 2.562 9.19999C2.53494 9.17244 2.51366 9.13977 2.49941 9.10388C2.48516 9.068 2.47822 9.02963 2.479 8.99102C2.47979 8.95242 2.48828 8.91436 2.50397 8.87908ZM2.68397 10.3191H3.53357V10.8987H2.70017L2.68397 10.3191ZM8.79677 14.9631H2.76677V14.3817H8.79677V14.9631ZM8.79677 12.8355H2.76677V12.2559H8.79677V12.8355ZM8.79677 10.9023H4.23737V10.3227H8.79677V10.9023Z"/>
<path d="M13.6694 9.21045C12.9617 9.21045 12.2699 9.4204 11.6816 9.81372C11.0932 10.207 10.6348 10.7661 10.3643 11.42C10.0938 12.074 10.0234 12.7935 10.162 13.4875C10.3006 14.1815 10.642 14.8187 11.1429 15.3186C11.6438 15.8185 12.2818 16.1586 12.976 16.2958C13.6703 16.433 14.3897 16.3611 15.0431 16.0893C15.6965 15.8175 16.2546 15.358 16.6467 14.7689C17.0388 14.1797 17.2474 13.4875 17.246 12.7798C17.2431 11.8328 16.8651 10.9255 16.1948 10.2565C15.5245 9.58753 14.6164 9.2114 13.6694 9.21045ZM13.7828 12.5224C14.5964 12.5998 15.2318 13.2226 15.2318 13.9768C15.2201 14.3021 15.1025 14.6146 14.8968 14.8667C14.6911 15.1189 14.4086 15.2969 14.0924 15.3737V15.8398H13.5128V15.4402C12.6704 15.3934 11.999 14.758 11.999 13.984H12.5786C12.5786 14.47 13.043 14.866 13.6154 14.866C14.1878 14.866 14.6504 14.47 14.6504 13.984C14.6504 13.498 14.186 13.102 13.6154 13.102C12.836 13.0174 12.2258 12.4198 12.2258 11.6998C12.2258 11.0068 12.7838 10.429 13.5128 10.3138V9.73785H14.0924V10.3192C14.4288 10.3673 14.7379 10.5318 14.9657 10.784C15.1936 11.0362 15.3259 11.3602 15.3398 11.6998H14.7602C14.7602 11.2426 14.3228 10.87 13.7828 10.87C13.2428 10.87 12.8054 11.2354 12.8054 11.6998C12.8054 12.1642 13.2446 12.5224 13.7828 12.5224Z"/>
</g>
<defs>
<clipPath id="eclip0_1_58">
<rect width="18" height="18" transform="translate(0 -0.000244141)"/>
</clipPath>
</defs>
</symbol><symbol viewBox="0 0 20 20" id="investor" xmlns="http://www.w3.org/2000/svg">
<path d="M12.5856 4.54888C12.5166 4.54903 12.4476 4.54444 12.3794 4.53513C11.3085 4.39093 10.284 4.03971 9.375 3.50513C8.14917 4.2354 6.71559 4.62464 5.25 4.62513C4.55727 4.62243 3.86828 4.53262 3.20263 4.35825C3.19644 4.447 3.1875 4.53513 3.1875 4.62513C3.1875 5.78545 3.69453 6.89825 4.59705 7.71872C5.49957 8.53919 6.72365 9.00013 8 9.00013C9.27635 9.00013 10.5004 8.53919 11.403 7.71872C12.3055 6.89825 12.8125 5.78545 12.8125 4.62513C12.8125 4.592 12.8077 4.56263 12.807 4.527C12.734 4.53963 12.6599 4.54695 12.5856 4.54888V4.54888Z"/>
<path d="M5.24989 3.37501C6.77316 3.37626 8.24286 2.8641 9.37489 1.93751C10.2752 2.66807 11.3915 3.14245 12.5855 3.30189C12.282 2.43119 11.6862 1.66878 10.8816 1.12174C10.0771 0.574695 9.10424 0.270503 8.09975 0.251885C7.09526 0.233267 6.10959 0.501159 5.28117 1.01793C4.45276 1.53471 3.82321 2.27441 3.48096 3.13314C4.05444 3.29189 4.65042 3.37338 5.24989 3.37501V3.37501Z"/>
<path d="M14.875 14.6249C13.9024 14.6398 12.9463 14.3951 12.125 13.9211V16.1874C12.125 17.0505 13.3563 17.7499 14.875 17.7499C16.3937 17.7499 17.625 17.0505 17.625 16.1874V13.9211C16.8037 14.3951 15.8476 14.6398 14.875 14.6249V14.6249Z"/>
<path d="M14.875 13.375C16.3938 13.375 17.625 12.6754 17.625 11.8125C17.625 10.9496 16.3938 10.25 14.875 10.25C13.3562 10.25 12.125 10.9496 12.125 11.8125C12.125 12.6754 13.3562 13.375 14.875 13.375Z"/>
<path d="M10.75 16.1875V11.8125C10.7564 11.4733 10.8412 11.1391 10.9988 10.8316C11.1565 10.5241 11.3835 10.2501 11.6651 10.0275C10.9368 9.76215 10.1596 9.62554 9.375 9.625L8.6875 10.875L9.84044 14.5425C9.90783 14.7569 9.91093 14.9837 9.8494 15.1996C9.78786 15.4154 9.66395 15.6124 9.4905 15.77L8.48606 16.6831C8.35714 16.8003 8.1823 16.8661 8 16.8661C7.8177 16.8661 7.64286 16.8003 7.51394 16.6831L6.5095 15.77C6.33605 15.6124 6.21213 15.4154 6.1506 15.1996C6.08907 14.9837 6.09217 14.7569 6.15956 14.5425L7.3125 10.875L6.625 9.625C4.98397 9.625 3.41016 10.2176 2.24978 11.2725C1.0894 12.3274 0.4375 13.7582 0.4375 15.25V15.875C0.4375 16.3723 0.654799 16.8492 1.04159 17.2008C1.42839 17.5525 1.95299 17.75 2.5 17.75H11.4272C10.9979 17.3226 10.7568 16.7663 10.75 16.1875V16.1875Z"/>
</symbol><symbol viewBox="0 0 22 21" id="telegram" xmlns="http://www.w3.org/2000/svg">
<g clip-path="url(#gclip0_12_839)">
<path fill-rule="evenodd" clip-rule="evenodd" d="M10.8321 0.0999756C5.08873 0.0999756 0.432129 4.75658 0.432129 10.5C0.432129 16.2434 5.08873 20.9 10.8321 20.9C16.5755 20.9 21.2321 16.2434 21.2321 10.5C21.2321 4.75658 16.5755 0.0999756 10.8321 0.0999756ZM15.6525 7.17284C15.4965 8.81691 14.8188 12.8079 14.4747 14.6496C14.3291 15.4296 14.0414 15.6904 13.7641 15.7156C13.16 15.771 12.7015 15.316 12.1165 14.933C11.2013 14.3332 10.6839 13.9597 9.7956 13.3738C8.76859 12.697 9.4342 12.3252 10.0192 11.7176C10.1726 11.5582 12.8333 9.13758 12.8853 8.91831C12.8913 8.89058 12.8983 8.78831 12.8367 8.73458C12.7752 8.68084 12.6859 8.69904 12.6218 8.71378C12.5299 8.73458 11.0679 9.70091 8.23473 11.6128C7.8196 11.8979 7.44346 12.0366 7.10633 12.0296C6.7354 12.0218 6.02126 11.8199 5.49 11.6466C4.83913 11.4351 4.32086 11.3224 4.36593 10.9636C4.38933 10.7764 4.64673 10.5849 5.139 10.389C8.1706 9.06824 10.1925 8.19724 11.2039 7.77604C14.0925 6.57484 14.6923 6.36598 15.084 6.35904C15.5745 6.35211 15.6924 6.75684 15.6525 7.17284Z"/>
</g>
<defs>
<clipPath id="gclip0_12_839">
<rect width="20.8" height="20.8" transform="translate(0.432129 0.0999756)"/>
</clipPath>
</defs>
</symbol><symbol viewBox="0 0 21 21" id="twitter" xmlns="http://www.w3.org/2000/svg">
<g clip-path="url(#hclip0_12_842)">
<path d="M18.8708 6.25678C18.8829 6.43964 18.8829 6.62338 18.8829 6.80798C18.8829 12.4474 14.5895 18.95 6.74093 18.95V18.9465C4.4226 18.95 2.15193 18.2861 0.200195 17.0338C0.537329 17.0745 0.876195 17.0944 1.21593 17.0953C3.1382 17.097 5.005 16.4522 6.51559 15.2649C4.68953 15.2302 3.08793 14.0394 2.52893 12.3009C3.16853 12.424 3.82719 12.3988 4.45553 12.2281C2.46393 11.826 1.0322 10.0762 1.0322 8.04471C1.0322 8.02651 1.0322 8.00831 1.0322 7.99098C1.62586 8.32204 2.28973 8.50491 2.9692 8.52484C1.09373 7.27251 0.514795 4.77824 1.64753 2.82824C3.8142 5.49411 7.01133 7.11478 10.4425 7.28724C10.0984 5.80524 10.569 4.25218 11.6766 3.20958C13.3952 1.59324 16.0983 1.67644 17.7147 3.39504C18.6706 3.20698 19.5867 2.85598 20.4247 2.35938C20.1058 3.34738 19.4393 4.18631 18.5484 4.72018C19.3951 4.61878 20.2211 4.39258 21.0002 4.04764C20.4273 4.90478 19.7063 5.65271 18.8708 6.25678Z"/>
</g>
<defs>
<clipPath id="hclip0_12_842">
<rect width="20.8" height="20.8" transform="translate(0.200195 0.0999756)"/>
</clipPath>
</defs>
</symbol></svg>