<svg width="28" height="37" viewBox="0 0 28 37" fill="none" xmlns="http://www.w3.org/2000/svg">
<mask id="mask0_3_606" style="mask-type:luminance" maskUnits="userSpaceOnUse" x="0" y="9" width="17" height="29">
<path d="M8.87289 21.6619C5.57108 18.5391 4.75138 13.6127 6.86535 9.59521L3.08035 13.3689C1.26263 15.5454 0 18.2122 0 20.879C0 20.8848 0 20.8905 0 20.8962C0 20.902 0 20.9077 0 20.9134C0 22.8519 0.667265 24.7932 1.72856 26.5424C2.65755 28.0708 3.6038 28.9483 4.84917 30.19L11.68 37.0004L14.8236 33.8662C16.5522 32.1428 16.5522 29.3211 14.8236 27.5977L8.87289 21.6647V21.6619Z" fill="white"/>
</mask>
<g mask="url(#mask0_3_606)">
<path d="M16.5522 9.59521H0V37.0004H16.5522V9.59521Z" fill="url(#paint0_linear_3_606)"/>
</g>
<mask id="mask1_3_606" style="mask-type:luminance" maskUnits="userSpaceOnUse" x="1" y="11" width="15" height="26">
<path d="M8.60522 21.9366C5.66581 19.155 4.62465 14.9741 5.78373 11.2119L3.36202 13.6264C2.87308 14.2114 2.41865 14.8451 2.01599 15.5132C1.52992 18.355 2.46179 21.3344 4.63903 23.3933L9.61763 28.357C10.9406 29.6761 10.9406 31.8353 9.61763 33.1544C8.69726 34.0261 10.4862 35.2707 11.6769 36.455L14.5502 33.5903C16.1292 32.016 16.1292 29.4352 14.5502 27.8609L8.60235 21.9308L8.60522 21.9366Z" fill="white"/>
</mask>
<g mask="url(#mask1_3_606)">
<path d="M16.1324 11.2119H1.53027V36.4607H16.1324V11.2119Z" fill="url(#paint1_linear_3_606)"/>
</g>
<mask id="mask2_3_606" style="mask-type:luminance" maskUnits="userSpaceOnUse" x="5" y="8" width="8" height="14">
<path d="M6.86521 9.59483C4.75124 13.6123 5.57094 18.5416 8.87275 21.6615C8.35792 21.1482 8.24288 20.7582 8.88426 20.1159L11.4929 17.515C13.2215 15.7916 13.2215 12.9699 11.4929 11.2465L8.34929 8.1123L6.86233 9.59483H6.86521Z" fill="white"/>
</mask>
<g mask="url(#mask2_3_606)">
<path d="M13.2241 8.1123H4.75098V21.6615H13.2241V8.1123Z" fill="url(#paint2_linear_3_606)"/>
</g>
<mask id="mask3_3_606" style="mask-type:luminance" maskUnits="userSpaceOnUse" x="6" y="8" width="7" height="13">
<path d="M7.18396 9.82634L8.35167 8.66211L11.2192 11.5211C12.7953 13.0925 12.7953 15.6675 11.2192 17.239L8.61052 19.8398C8.4322 20.0176 8.29702 20.1868 8.20499 20.356C7.77069 19.8111 7.40254 19.2262 7.10055 18.6125L8.08706 17.6289C9.66319 16.0575 9.66319 13.4825 8.08706 11.911L6.81006 10.6379C6.92223 10.3626 7.0459 10.093 7.18396 9.82634Z" fill="white"/>
</mask>
<g mask="url(#mask3_3_606)">
<path d="M12.7953 8.66211H6.80713V20.3588H12.7953V8.66211Z" fill="url(#paint3_linear_3_606)"/>
</g>
<path fill-rule="evenodd" clip-rule="evenodd" d="M6.86521 9.59515C4.75124 13.6126 5.57094 18.5419 8.87275 21.6618C8.35792 21.1485 8.24288 20.7585 8.88426 20.1162C6.76742 17.0422 6.03688 13.2283 6.86233 9.59229" fill="#0086D5"/>
<mask id="mask4_3_606" style="mask-type:luminance" maskUnits="userSpaceOnUse" x="5" y="9" width="4" height="13">
<path d="M6.86521 9.59515C4.75124 13.6126 5.57094 18.5419 8.87275 21.6618C8.35792 21.1485 8.24288 20.7585 8.88426 20.1162C6.76742 17.0422 6.03688 13.2283 6.86233 9.59229" fill="white"/>
</mask>
<g mask="url(#mask4_3_606)">
<path d="M8.88687 9.59521H4.75098V21.6619H8.88687V9.59521Z" fill="url(#paint4_linear_3_606)"/>
</g>
<mask id="mask5_3_606" style="mask-type:luminance" maskUnits="userSpaceOnUse" x="11" y="0" width="17" height="28">
<path d="M18.7897 15.3357C22.0915 18.4584 22.9112 23.3849 20.7972 27.4023L24.5822 23.6286C26.4 21.4521 27.6597 18.7853 27.6626 16.1185C27.6626 16.1128 27.6626 16.107 27.6626 16.1013C27.6626 16.0956 27.6626 16.0898 27.6626 16.0841C27.6626 14.1456 26.9953 12.2043 25.934 10.4551C25.005 8.92668 24.0588 8.04921 22.8134 6.80756L15.9855 0L12.8418 3.13423C11.1133 4.85763 11.1133 7.6793 12.8418 9.4027L18.7926 15.3357H18.7897Z" fill="white"/>
</mask>
<g mask="url(#mask5_3_606)">
<path d="M27.663 0H11.1108V27.4052H27.663V0Z" fill="url(#paint5_linear_3_606)"/>
</g>
<mask id="mask6_3_606" style="mask-type:luminance" maskUnits="userSpaceOnUse" x="11" y="0" width="15" height="26">
<path d="M19.0575 15.0633C21.9969 17.8449 23.038 22.0257 21.8789 25.788L24.3007 23.3735C24.7896 22.7885 25.244 22.1548 25.6467 21.4866C26.1328 18.6449 25.2009 15.6655 23.0237 13.6066L18.0451 8.64288C16.722 7.32381 16.722 5.16455 18.0451 3.84547C18.9654 2.97374 17.1765 1.72922 15.9857 0.544922L13.1125 3.4096C11.5335 4.98389 11.5335 7.56469 13.1125 9.13897L19.0603 15.0691L19.0575 15.0633Z" fill="white"/>
</mask>
<g mask="url(#mask6_3_606)">
<path d="M26.1329 0.539062H11.5308V25.7878H26.1329V0.539062Z" fill="url(#paint6_linear_3_606)"/>
</g>
<mask id="mask7_3_606" style="mask-type:luminance" maskUnits="userSpaceOnUse" x="14" y="15" width="8" height="14">
<path d="M20.8006 27.405C22.9146 23.3876 22.0949 18.4583 18.793 15.3384C19.3079 15.8517 19.4229 16.2417 18.7815 16.884L16.1729 19.4849C14.4443 21.2083 14.4443 24.0299 16.1729 25.7533L19.3165 28.8876L20.8035 27.405H20.8006Z" fill="white"/>
</mask>
<g mask="url(#mask7_3_606)">
<path d="M22.915 15.3354H14.4419V28.8846H22.915V15.3354Z" fill="url(#paint7_linear_3_606)"/>
</g>
<mask id="mask8_3_606" style="mask-type:luminance" maskUnits="userSpaceOnUse" x="15" y="16" width="6" height="13">
<path d="M20.481 27.1698L19.3133 28.334L16.4458 25.4751C14.8696 23.9036 14.8696 21.3286 16.4458 19.7572L19.0544 17.1563C19.2327 16.9785 19.3679 16.8093 19.46 16.6401C19.8943 17.185 20.2624 17.77 20.5644 18.3836L19.5779 19.3672C18.0018 20.9386 18.0018 23.5137 19.5779 25.0851L20.8549 26.3583C20.7427 26.6335 20.619 26.9031 20.481 27.1698Z" fill="white"/>
</mask>
<g mask="url(#mask8_3_606)">
<path d="M20.8578 16.6401H14.8696V28.3369H20.8578V16.6401Z" fill="url(#paint8_linear_3_606)"/>
</g>
<path fill-rule="evenodd" clip-rule="evenodd" d="M20.8003 27.405C22.9143 23.3876 22.0946 18.4583 18.7928 15.3384C19.3076 15.8517 19.4226 16.2417 18.7812 16.884C20.8981 19.958 21.6286 23.7718 20.8032 27.4079" fill="#0086D5"/>
<mask id="mask9_3_606" style="mask-type:luminance" maskUnits="userSpaceOnUse" x="18" y="15" width="4" height="13">
<path d="M20.8003 27.405C22.9143 23.3876 22.0946 18.4583 18.7928 15.3384C19.3076 15.8517 19.4226 16.2417 18.7812 16.884C20.8981 19.958 21.6286 23.7718 20.8032 27.4079" fill="white"/>
</mask>
<g mask="url(#mask9_3_606)">
<path d="M22.9142 15.3354H18.7783V27.4021H22.9142V15.3354Z" fill="url(#paint9_linear_3_606)"/>
</g>
<defs>
<linearGradient id="paint0_linear_3_606" x1="8.45873" y1="9.69558" x2="7.99843" y2="44.155" gradientUnits="userSpaceOnUse">
<stop stop-color="#FF0007"/>
<stop offset="0.1" stop-color="#FF0D06"/>
<stop offset="0.28" stop-color="#FF3205"/>
<stop offset="0.52" stop-color="#FF6D03"/>
<stop offset="0.82" stop-color="#FFBE01"/>
<stop offset="1" stop-color="#FFF200"/>
</linearGradient>
<linearGradient id="paint1_linear_3_606" x1="9.01974" y1="9.70358" x2="8.5623" y2="44.1601" gradientUnits="userSpaceOnUse">
<stop stop-color="#FF0007"/>
<stop offset="1" stop-color="#FFF200"/>
</linearGradient>
<linearGradient id="paint2_linear_3_606" x1="1.15005" y1="22.7024" x2="19.488" y2="4.30957" gradientUnits="userSpaceOnUse">
<stop stop-color="#0086D5"/>
<stop offset="0.55" stop-color="#019EEB"/>
<stop offset="0.94" stop-color="#02B2FD"/>
</linearGradient>
<linearGradient id="paint3_linear_3_606" x1="4.29626" y1="22.0478" x2="17.2284" y2="4.23508" gradientUnits="userSpaceOnUse">
<stop offset="0.14" stop-color="#0086D5"/>
<stop offset="0.31" stop-color="#009AE7"/>
<stop offset="0.54" stop-color="#02B2FD"/>
</linearGradient>
<linearGradient id="paint4_linear_3_606" x1="3.33304" y1="19.1011" x2="19.0672" y2="3.3227" gradientUnits="userSpaceOnUse">
<stop offset="0.04" stop-color="#1E76D9"/>
<stop offset="0.21" stop-color="#1B7BDC"/>
<stop offset="0.43" stop-color="#148BE5"/>
<stop offset="0.68" stop-color="#07A5F5"/>
<stop offset="0.77" stop-color="#02B2FD"/>
</linearGradient>
<linearGradient id="paint5_linear_3_606" x1="19.2072" y1="27.3048" x2="19.6646" y2="-7.15457" gradientUnits="userSpaceOnUse">
<stop stop-color="#FF0007"/>
<stop offset="0.1" stop-color="#FF0D06"/>
<stop offset="0.28" stop-color="#FF3205"/>
<stop offset="0.52" stop-color="#FF6D03"/>
<stop offset="0.82" stop-color="#FFBE01"/>
<stop offset="1" stop-color="#FFF200"/>
</linearGradient>
<linearGradient id="paint6_linear_3_606" x1="18.6435" y1="27.2962" x2="19.1038" y2="-7.16035" gradientUnits="userSpaceOnUse">
<stop stop-color="#FF0007"/>
<stop offset="1" stop-color="#FFF200"/>
</linearGradient>
<linearGradient id="paint7_linear_3_606" x1="26.5159" y1="14.2974" x2="8.17803" y2="32.6902" gradientUnits="userSpaceOnUse">
<stop stop-color="#0086D5"/>
<stop offset="0.55" stop-color="#019EEB"/>
<stop offset="0.94" stop-color="#02B2FD"/>
</linearGradient>
<linearGradient id="paint8_linear_3_606" x1="23.3686" y1="14.9511" x2="10.4336" y2="32.7639" gradientUnits="userSpaceOnUse">
<stop offset="0.14" stop-color="#0086D5"/>
<stop offset="0.31" stop-color="#009AE7"/>
<stop offset="0.54" stop-color="#02B2FD"/>
</linearGradient>
<linearGradient id="paint9_linear_3_606" x1="24.3293" y1="17.8962" x2="8.59797" y2="33.6775" gradientUnits="userSpaceOnUse">
<stop offset="0.04" stop-color="#1E76D9"/>
<stop offset="0.21" stop-color="#1B7BDC"/>
<stop offset="0.43" stop-color="#148BE5"/>
<stop offset="0.68" stop-color="#07A5F5"/>
<stop offset="0.77" stop-color="#02B2FD"/>
</linearGradient>
</defs>
</svg>
