<svg width="208" height="37" viewBox="0 0 208 37" fill="none" xmlns="http://www.w3.org/2000/svg">
<path d="M44.0913 26.8608V11.0864H51.6671C53.2921 11.0864 54.5863 11.5309 55.5498 12.4198C56.5134 13.3088 56.9965 14.5103 56.9965 16.0186C56.9965 17.0366 56.801 17.8452 56.4098 18.4503C56.0187 19.0553 55.5297 19.5113 54.9401 19.821C54.3505 20.1307 53.7609 20.3572 53.1713 20.5006L57.3302 26.8637H55.2047L51.3823 20.8103H45.886V26.8637H44.0942L44.0913 26.8608ZM45.8831 19.1156H51.3564C51.9288 19.1156 52.5126 19.0295 53.1023 18.8546C53.6919 18.6797 54.1894 18.3671 54.595 17.9141C55.0005 17.461 55.2047 16.8301 55.2047 16.0186C55.2047 15.0178 54.8625 14.2264 54.1779 13.6471C53.4934 13.0679 52.5845 12.7783 51.4542 12.7783H45.886V19.1156H45.8831Z" fill="#232323"/>
<path d="M65.2424 27.05C64.0316 27.05 62.9731 26.7747 62.0643 26.227C61.1554 25.6793 60.4508 24.9366 59.9503 23.9989C59.447 23.0612 59.1968 22.0289 59.1968 20.9019C59.1968 19.775 59.4355 18.7226 59.9129 17.7935C60.3904 16.8644 61.0749 16.1246 61.9694 15.5769C62.8639 15.0292 63.9136 14.7539 65.1245 14.7539C66.3354 14.7539 67.4053 15.0292 68.2911 15.5769C69.1741 16.1246 69.8557 16.8644 70.3332 17.7935C70.8106 18.7226 71.0493 19.7606 71.0493 20.9019V21.616H61.0346C61.1295 22.3156 61.3568 22.9551 61.7163 23.5343C62.0758 24.1136 62.5561 24.5753 63.163 24.9165C63.767 25.2577 64.4687 25.4298 65.2654 25.4298C66.111 25.4298 66.8185 25.2434 67.3909 24.8706C67.9632 24.4978 68.4091 24.0161 68.7283 23.4282H70.687C70.2728 24.4921 69.6142 25.3638 68.7139 26.0377C67.8137 26.7145 66.6546 27.05 65.2367 27.05H65.2424ZM61.0605 19.9499H69.1856C69.0274 18.9348 68.596 18.0831 67.8942 17.4007C67.1924 16.7182 66.2692 16.3769 65.1216 16.3769C63.974 16.3769 63.0537 16.7182 62.3605 17.4007C61.6674 18.0831 61.2331 18.9348 61.0576 19.9499H61.0605Z" fill="#232323"/>
<path d="M77.0231 26.8605L72.3379 14.9458H74.2965L78.0729 24.9536L81.8263 14.9458H83.7849L79.1256 26.8605H77.0231Z" fill="#232323"/>
<path d="M91.053 27.05C89.8421 27.05 88.7837 26.7747 87.8748 26.227C86.966 25.6793 86.2613 24.9366 85.7609 23.9989C85.2604 23.0612 85.0073 22.0289 85.0073 20.9019C85.0073 19.775 85.246 18.7226 85.7235 17.7935C86.2009 16.8644 86.8854 16.1246 87.7799 15.5769C88.6715 15.0292 89.7242 14.7539 90.9351 14.7539C92.1459 14.7539 93.2187 15.0292 94.1017 15.5769C94.9847 16.1246 95.6663 16.8644 96.1437 17.7935C96.6212 18.7226 96.8599 19.7606 96.8599 20.9019V21.616H86.8452C86.9401 22.3156 87.1673 22.9551 87.5268 23.5343C87.8863 24.1136 88.3667 24.5753 88.9735 24.9165C89.5804 25.2577 90.2793 25.4298 91.076 25.4298C91.9216 25.4298 92.6291 25.2434 93.2043 24.8706C93.7796 24.4978 94.2225 24.0161 94.5417 23.4282H96.5004C96.0862 24.4921 95.4276 25.3638 94.5273 26.0377C93.6271 26.7145 92.468 27.05 91.0501 27.05H91.053ZM86.8711 19.9499H94.9962C94.838 18.9348 94.4065 18.0831 93.7048 17.4007C93.003 16.7182 92.0798 16.3769 90.9322 16.3769C89.7846 16.3769 88.8642 16.7182 88.1711 17.4007C87.4779 18.0831 87.0436 18.9348 86.8682 19.9499H86.8711Z" fill="#232323"/>
<path d="M99.5835 26.8607V14.946H101.375V16.8042C101.807 16.2336 102.33 15.7489 102.951 15.3504C103.573 14.9518 104.369 14.7539 105.342 14.7539C106.17 14.7539 106.946 14.9489 107.671 15.3389C108.396 15.7289 108.986 16.3081 109.44 17.0795C109.894 17.8509 110.122 18.8 110.122 19.927V26.8607H108.33V19.9757C108.33 18.8946 108.019 18.0258 107.398 17.3662C106.777 16.7067 105.971 16.3769 104.985 16.3769C104.315 16.3769 103.711 16.5289 103.17 16.83C102.629 17.1311 102.195 17.5555 101.867 18.1061C101.539 18.6566 101.378 19.2846 101.378 20.0015V26.8636H99.5864L99.5835 26.8607Z" fill="#232323"/>
<path d="M118.296 27.0497C117.485 27.0497 116.711 26.8547 115.978 26.4647C115.244 26.0747 114.652 25.4955 114.197 24.7241C113.743 23.9527 113.516 23.0036 113.516 21.8766V14.9429H115.307V21.8279C115.307 22.9089 115.621 23.7778 116.251 24.4373C116.881 25.0969 117.68 25.4266 118.652 25.4266C119.323 25.4266 119.927 25.2718 120.47 24.9621C121.011 24.6524 121.445 24.228 121.773 23.686C122.098 23.1469 122.262 22.5189 122.262 21.8049V14.9429H124.054V26.8575H122.262V24.9994C121.831 25.57 121.307 26.0546 120.686 26.4532C120.065 26.8489 119.268 27.0497 118.296 27.0497Z" fill="#232323"/>
<path d="M132.995 27.05C131.784 27.05 130.726 26.7747 129.817 26.227C128.908 25.6793 128.204 24.9366 127.703 23.9989C127.203 23.0612 126.95 22.0289 126.95 20.9019C126.95 19.775 127.188 18.7226 127.666 17.7935C128.143 16.8644 128.828 16.1246 129.722 15.5769C130.614 15.0292 131.667 14.7539 132.877 14.7539C134.088 14.7539 135.161 15.0292 136.044 15.5769C136.927 16.1246 137.609 16.8644 138.086 17.7935C138.564 18.7226 138.802 19.7606 138.802 20.9019V21.616H128.788C128.882 22.3156 129.11 22.9551 129.469 23.5343C129.829 24.1136 130.309 24.5753 130.916 24.9165C131.523 25.2577 132.222 25.4298 133.018 25.4298C133.864 25.4298 134.571 25.2434 135.147 24.8706C135.722 24.4978 136.165 24.0161 136.484 23.4282H138.443C138.029 24.4921 137.37 25.3638 136.47 26.0377C135.569 26.7145 134.41 27.05 132.992 27.05H132.995ZM128.813 19.9499H136.939C136.78 18.9348 136.349 18.0831 135.647 17.4007C134.945 16.7182 134.022 16.3769 132.875 16.3769C131.727 16.3769 130.807 16.7182 130.113 17.4007C129.42 18.0831 128.986 18.9348 128.811 19.9499H128.813Z" fill="#232323"/>
<path d="M141.909 26.8608V11.0864H143.988L149.651 18.5679L155.219 11.0864H157.299V26.8608H155.507V13.802L149.651 21.3064L143.701 13.802V26.8608H141.909Z" fill="#232323"/>
<path d="M166.359 27.05C165.197 27.05 164.179 26.7747 163.313 26.227C162.445 25.6793 161.772 24.9366 161.294 23.9989C160.817 23.0612 160.578 22.0289 160.578 20.9019C160.578 19.775 160.817 18.7226 161.294 17.7935C161.772 16.8644 162.445 16.1246 163.313 15.5769C164.182 15.0292 165.197 14.7539 166.359 14.7539C167.346 14.7539 168.194 14.946 168.905 15.3245C169.612 15.7059 170.19 16.2221 170.636 16.873V14.9432H172.428V26.8578H170.636V24.9509C170.19 25.5875 169.612 26.0951 168.905 26.4765C168.194 26.8578 167.346 27.0471 166.359 27.0471V27.05ZM166.598 25.4298C167.489 25.4298 168.243 25.2233 168.856 24.8104C169.468 24.3975 169.934 23.844 170.253 23.1558C170.573 22.4647 170.731 21.7135 170.731 20.9048C170.731 20.0962 170.573 19.3248 170.253 18.6423C169.934 17.9598 169.468 17.4121 168.856 16.9992C168.243 16.5863 167.489 16.3798 166.598 16.3798C165.706 16.3798 164.964 16.5863 164.329 16.9992C163.69 17.4121 163.204 17.9598 162.87 18.6423C162.537 19.3248 162.367 20.0789 162.367 20.9048C162.367 21.7307 162.534 22.4647 162.87 23.1558C163.204 23.8469 163.69 24.3975 164.329 24.8104C164.964 25.2233 165.724 25.4298 166.598 25.4298Z" fill="#232323"/>
<path d="M177.352 26.8604V16.52H174.913V14.9486H177.352V10.6846H179.143V14.9486H181.893V16.52H179.143V26.8604H177.352Z" fill="#232323"/>
<path d="M189.443 27.05C188.232 27.05 187.173 26.7747 186.264 26.227C185.356 25.6793 184.651 24.9366 184.151 23.9989C183.647 23.0612 183.397 22.0289 183.397 20.9019C183.397 19.775 183.636 18.7226 184.113 17.7935C184.591 16.8644 185.275 16.1246 186.17 15.5769C187.061 15.0292 188.114 14.7539 189.325 14.7539C190.536 14.7539 191.605 15.0292 192.491 15.5769C193.374 16.1246 194.056 16.8644 194.533 17.7935C195.011 18.7226 195.25 19.7606 195.25 20.9019V21.616H185.235C185.33 22.3156 185.557 22.9551 185.916 23.5343C186.276 24.1136 186.756 24.5753 187.363 24.9165C187.967 25.2577 188.669 25.4298 189.466 25.4298C190.311 25.4298 191.019 25.2434 191.591 24.8706C192.166 24.4978 192.609 24.0161 192.928 23.4282H194.887C194.473 24.4921 193.814 25.3638 192.914 26.0377C192.014 26.7145 190.855 27.05 189.437 27.05H189.443ZM185.261 19.9499H193.386C193.228 18.9348 192.796 18.0831 192.094 17.4007C191.393 16.7182 190.469 16.3769 189.322 16.3769C188.174 16.3769 187.254 16.7182 186.561 17.4007C185.868 18.0831 185.433 18.9348 185.258 19.9499H185.261Z" fill="#232323"/>
<path d="M202.325 27.05C201.226 27.05 200.297 26.8665 199.541 26.5023C198.784 26.1381 198.206 25.6564 197.809 25.0599C197.41 24.4635 197.188 23.8183 197.139 23.1186H199.003C199.052 23.5172 199.19 23.9015 199.42 24.2742C199.65 24.647 200.007 24.951 200.484 25.1804C200.962 25.4098 201.583 25.5274 202.348 25.5274C202.587 25.5274 202.883 25.5044 203.231 25.4557C203.582 25.4069 203.921 25.3209 204.246 25.1947C204.571 25.0685 204.847 24.8764 205.072 24.6241C205.296 24.3689 205.405 24.0448 205.405 23.6462C205.405 23.153 205.212 22.7716 204.833 22.5021C204.45 22.2325 203.956 22.0232 203.352 21.8712C202.745 21.7192 202.103 21.573 201.427 21.4296C200.749 21.2862 200.11 21.0999 199.503 20.8705C198.896 20.641 198.405 20.3141 198.022 19.8926C197.64 19.4711 197.45 18.8947 197.45 18.1664C197.45 17.0853 197.844 16.248 198.632 15.6515C199.42 15.0551 200.588 14.7568 202.132 14.7568C203.185 14.7568 204.039 14.9203 204.701 15.2443C205.362 15.5712 205.863 15.987 206.208 16.4946C206.55 17.0021 206.754 17.5498 206.817 18.1377H205.003C204.939 17.6301 204.689 17.1943 204.249 16.8272C203.812 16.463 203.09 16.2795 202.086 16.2795C200.191 16.2795 199.242 16.8501 199.242 17.9943C199.242 18.4703 199.434 18.8374 199.814 19.0897C200.196 19.3449 200.691 19.5456 201.295 19.6976C201.899 19.8496 202.541 19.993 203.219 20.1278C203.895 20.2625 204.537 20.4489 205.143 20.6869C205.747 20.9249 206.242 21.2633 206.625 21.6992C207.007 22.135 207.197 22.7286 207.197 23.4742C207.197 24.6327 206.754 25.5188 205.871 26.1295C204.988 26.7403 203.803 27.0472 202.322 27.0472L202.325 27.05Z" fill="#232323"/>
<mask id="mask0_3_592" style="mask-type:luminance" maskUnits="userSpaceOnUse" x="0" y="9" width="17" height="29">
<path d="M8.87289 21.6619C5.57108 18.5391 4.75138 13.6127 6.86535 9.59521L3.08035 13.3689C1.26263 15.5454 0 18.2122 0 20.879C0 20.8848 0 20.8905 0 20.8962C0 20.902 0 20.9077 0 20.9134C0 22.8519 0.667265 24.7932 1.72856 26.5424C2.65755 28.0708 3.6038 28.9483 4.84917 30.19L11.68 37.0004L14.8236 33.8662C16.5522 32.1428 16.5522 29.3211 14.8236 27.5977L8.87289 21.6647V21.6619Z" fill="white"/>
</mask>
<g mask="url(#mask0_3_592)">
<path d="M16.5522 9.59521H0V37.0004H16.5522V9.59521Z" fill="url(#paint0_linear_3_592)"/>
</g>
<mask id="mask1_3_592" style="mask-type:luminance" maskUnits="userSpaceOnUse" x="1" y="11" width="15" height="26">
<path d="M8.60522 21.9366C5.66581 19.155 4.62465 14.9741 5.78373 11.2119L3.36202 13.6264C2.87308 14.2114 2.41865 14.8451 2.01599 15.5132C1.52992 18.355 2.46179 21.3344 4.63903 23.3933L9.61763 28.357C10.9406 29.6761 10.9406 31.8353 9.61763 33.1544C8.69726 34.0261 10.4862 35.2707 11.6769 36.455L14.5502 33.5903C16.1292 32.016 16.1292 29.4352 14.5502 27.8609L8.60235 21.9308L8.60522 21.9366Z" fill="white"/>
</mask>
<g mask="url(#mask1_3_592)">
<path d="M16.1324 11.2119H1.53027V36.4607H16.1324V11.2119Z" fill="url(#paint1_linear_3_592)"/>
</g>
<mask id="mask2_3_592" style="mask-type:luminance" maskUnits="userSpaceOnUse" x="5" y="8" width="8" height="14">
<path d="M6.86521 9.59483C4.75124 13.6123 5.57094 18.5416 8.87275 21.6615C8.35792 21.1482 8.24288 20.7582 8.88426 20.1159L11.4929 17.515C13.2215 15.7916 13.2215 12.9699 11.4929 11.2465L8.34929 8.1123L6.86233 9.59483H6.86521Z" fill="white"/>
</mask>
<g mask="url(#mask2_3_592)">
<path d="M13.2241 8.1123H4.75098V21.6615H13.2241V8.1123Z" fill="url(#paint2_linear_3_592)"/>
</g>
<mask id="mask3_3_592" style="mask-type:luminance" maskUnits="userSpaceOnUse" x="6" y="8" width="7" height="13">
<path d="M7.18396 9.82634L8.35167 8.66211L11.2192 11.5211C12.7953 13.0925 12.7953 15.6675 11.2192 17.239L8.61052 19.8398C8.4322 20.0176 8.29702 20.1868 8.20499 20.356C7.77069 19.8111 7.40254 19.2262 7.10055 18.6125L8.08706 17.6289C9.66319 16.0575 9.66319 13.4825 8.08706 11.911L6.81006 10.6379C6.92223 10.3626 7.0459 10.093 7.18396 9.82634Z" fill="white"/>
</mask>
<g mask="url(#mask3_3_592)">
<path d="M12.7953 8.66211H6.80713V20.3588H12.7953V8.66211Z" fill="url(#paint3_linear_3_592)"/>
</g>
<path fill-rule="evenodd" clip-rule="evenodd" d="M6.86521 9.59515C4.75124 13.6126 5.57094 18.5419 8.87275 21.6618C8.35792 21.1485 8.24288 20.7585 8.88426 20.1162C6.76742 17.0422 6.03688 13.2283 6.86233 9.59229" fill="#0086D5"/>
<mask id="mask4_3_592" style="mask-type:luminance" maskUnits="userSpaceOnUse" x="5" y="9" width="4" height="13">
<path d="M6.86521 9.59515C4.75124 13.6126 5.57094 18.5419 8.87275 21.6618C8.35792 21.1485 8.24288 20.7585 8.88426 20.1162C6.76742 17.0422 6.03688 13.2283 6.86233 9.59229" fill="white"/>
</mask>
<g mask="url(#mask4_3_592)">
<path d="M8.88687 9.59521H4.75098V21.6619H8.88687V9.59521Z" fill="url(#paint4_linear_3_592)"/>
</g>
<mask id="mask5_3_592" style="mask-type:luminance" maskUnits="userSpaceOnUse" x="11" y="0" width="17" height="28">
<path d="M18.7897 15.3357C22.0915 18.4584 22.9112 23.3849 20.7972 27.4023L24.5822 23.6286C26.4 21.4521 27.6597 18.7853 27.6626 16.1185C27.6626 16.1128 27.6626 16.107 27.6626 16.1013C27.6626 16.0956 27.6626 16.0898 27.6626 16.0841C27.6626 14.1456 26.9953 12.2043 25.934 10.4551C25.005 8.92668 24.0588 8.04921 22.8134 6.80756L15.9855 0L12.8418 3.13423C11.1133 4.85763 11.1133 7.6793 12.8418 9.4027L18.7926 15.3357H18.7897Z" fill="white"/>
</mask>
<g mask="url(#mask5_3_592)">
<path d="M27.663 0H11.1108V27.4052H27.663V0Z" fill="url(#paint5_linear_3_592)"/>
</g>
<mask id="mask6_3_592" style="mask-type:luminance" maskUnits="userSpaceOnUse" x="11" y="0" width="15" height="26">
<path d="M19.0575 15.0633C21.9969 17.8449 23.038 22.0257 21.8789 25.788L24.3007 23.3735C24.7896 22.7885 25.244 22.1548 25.6467 21.4866C26.1328 18.6449 25.2009 15.6655 23.0237 13.6066L18.0451 8.64288C16.722 7.32381 16.722 5.16455 18.0451 3.84547C18.9654 2.97374 17.1765 1.72922 15.9857 0.544922L13.1125 3.4096C11.5335 4.98389 11.5335 7.56469 13.1125 9.13897L19.0603 15.0691L19.0575 15.0633Z" fill="white"/>
</mask>
<g mask="url(#mask6_3_592)">
<path d="M26.1329 0.539062H11.5308V25.7878H26.1329V0.539062Z" fill="url(#paint6_linear_3_592)"/>
</g>
<mask id="mask7_3_592" style="mask-type:luminance" maskUnits="userSpaceOnUse" x="14" y="15" width="8" height="14">
<path d="M20.8006 27.405C22.9146 23.3876 22.0949 18.4583 18.793 15.3384C19.3079 15.8517 19.4229 16.2417 18.7815 16.884L16.1729 19.4849C14.4443 21.2083 14.4443 24.0299 16.1729 25.7533L19.3165 28.8876L20.8035 27.405H20.8006Z" fill="white"/>
</mask>
<g mask="url(#mask7_3_592)">
<path d="M22.915 15.3354H14.4419V28.8846H22.915V15.3354Z" fill="url(#paint7_linear_3_592)"/>
</g>
<mask id="mask8_3_592" style="mask-type:luminance" maskUnits="userSpaceOnUse" x="15" y="16" width="6" height="13">
<path d="M20.481 27.1698L19.3133 28.334L16.4458 25.4751C14.8696 23.9036 14.8696 21.3286 16.4458 19.7572L19.0544 17.1563C19.2327 16.9785 19.3679 16.8093 19.46 16.6401C19.8943 17.185 20.2624 17.77 20.5644 18.3836L19.5779 19.3672C18.0018 20.9386 18.0018 23.5137 19.5779 25.0851L20.8549 26.3583C20.7427 26.6335 20.619 26.9031 20.481 27.1698Z" fill="white"/>
</mask>
<g mask="url(#mask8_3_592)">
<path d="M20.8578 16.6401H14.8696V28.3369H20.8578V16.6401Z" fill="url(#paint8_linear_3_592)"/>
</g>
<path fill-rule="evenodd" clip-rule="evenodd" d="M20.8003 27.405C22.9143 23.3876 22.0946 18.4583 18.7928 15.3384C19.3076 15.8517 19.4226 16.2417 18.7812 16.884C20.8981 19.958 21.6286 23.7718 20.8032 27.4079" fill="#0086D5"/>
<mask id="mask9_3_592" style="mask-type:luminance" maskUnits="userSpaceOnUse" x="18" y="15" width="4" height="13">
<path d="M20.8003 27.405C22.9143 23.3876 22.0946 18.4583 18.7928 15.3384C19.3076 15.8517 19.4226 16.2417 18.7812 16.884C20.8981 19.958 21.6286 23.7718 20.8032 27.4079" fill="white"/>
</mask>
<g mask="url(#mask9_3_592)">
<path d="M22.9142 15.3354H18.7783V27.4021H22.9142V15.3354Z" fill="url(#paint9_linear_3_592)"/>
</g>
<defs>
<linearGradient id="paint0_linear_3_592" x1="8.45873" y1="9.69558" x2="7.99843" y2="44.155" gradientUnits="userSpaceOnUse">
<stop stop-color="#FF0007"/>
<stop offset="0.1" stop-color="#FF0D06"/>
<stop offset="0.28" stop-color="#FF3205"/>
<stop offset="0.52" stop-color="#FF6D03"/>
<stop offset="0.82" stop-color="#FFBE01"/>
<stop offset="1" stop-color="#FFF200"/>
</linearGradient>
<linearGradient id="paint1_linear_3_592" x1="9.01974" y1="9.70358" x2="8.5623" y2="44.1601" gradientUnits="userSpaceOnUse">
<stop stop-color="#FF0007"/>
<stop offset="1" stop-color="#FFF200"/>
</linearGradient>
<linearGradient id="paint2_linear_3_592" x1="1.15005" y1="22.7024" x2="19.488" y2="4.30957" gradientUnits="userSpaceOnUse">
<stop stop-color="#0086D5"/>
<stop offset="0.55" stop-color="#019EEB"/>
<stop offset="0.94" stop-color="#02B2FD"/>
</linearGradient>
<linearGradient id="paint3_linear_3_592" x1="4.29626" y1="22.0478" x2="17.2284" y2="4.23508" gradientUnits="userSpaceOnUse">
<stop offset="0.14" stop-color="#0086D5"/>
<stop offset="0.31" stop-color="#009AE7"/>
<stop offset="0.54" stop-color="#02B2FD"/>
</linearGradient>
<linearGradient id="paint4_linear_3_592" x1="3.33304" y1="19.1011" x2="19.0672" y2="3.3227" gradientUnits="userSpaceOnUse">
<stop offset="0.04" stop-color="#1E76D9"/>
<stop offset="0.21" stop-color="#1B7BDC"/>
<stop offset="0.43" stop-color="#148BE5"/>
<stop offset="0.68" stop-color="#07A5F5"/>
<stop offset="0.77" stop-color="#02B2FD"/>
</linearGradient>
<linearGradient id="paint5_linear_3_592" x1="19.2072" y1="27.3048" x2="19.6646" y2="-7.15457" gradientUnits="userSpaceOnUse">
<stop stop-color="#FF0007"/>
<stop offset="0.1" stop-color="#FF0D06"/>
<stop offset="0.28" stop-color="#FF3205"/>
<stop offset="0.52" stop-color="#FF6D03"/>
<stop offset="0.82" stop-color="#FFBE01"/>
<stop offset="1" stop-color="#FFF200"/>
</linearGradient>
<linearGradient id="paint6_linear_3_592" x1="18.6435" y1="27.2962" x2="19.1038" y2="-7.16035" gradientUnits="userSpaceOnUse">
<stop stop-color="#FF0007"/>
<stop offset="1" stop-color="#FFF200"/>
</linearGradient>
<linearGradient id="paint7_linear_3_592" x1="26.5159" y1="14.2974" x2="8.17803" y2="32.6902" gradientUnits="userSpaceOnUse">
<stop stop-color="#0086D5"/>
<stop offset="0.55" stop-color="#019EEB"/>
<stop offset="0.94" stop-color="#02B2FD"/>
</linearGradient>
<linearGradient id="paint8_linear_3_592" x1="23.3686" y1="14.9511" x2="10.4336" y2="32.7639" gradientUnits="userSpaceOnUse">
<stop offset="0.14" stop-color="#0086D5"/>
<stop offset="0.31" stop-color="#009AE7"/>
<stop offset="0.54" stop-color="#02B2FD"/>
</linearGradient>
<linearGradient id="paint9_linear_3_592" x1="24.3293" y1="17.8962" x2="8.59797" y2="33.6775" gradientUnits="userSpaceOnUse">
<stop offset="0.04" stop-color="#1E76D9"/>
<stop offset="0.21" stop-color="#1B7BDC"/>
<stop offset="0.43" stop-color="#148BE5"/>
<stop offset="0.68" stop-color="#07A5F5"/>
<stop offset="0.77" stop-color="#02B2FD"/>
</linearGradient>
</defs>
</svg>
