<svg width="164" height="18" viewBox="0 0 164 18" fill="none" xmlns="http://www.w3.org/2000/svg">
<path d="M0.0913086 16.8608V1.08643H7.66706C9.29208 1.08643 10.5863 1.5309 11.5498 2.41984C12.5134 3.30878 12.9965 4.51028 12.9965 6.01861C12.9965 7.03659 12.801 7.84524 12.4098 8.45029C12.0187 9.05535 11.5297 9.51129 10.9401 9.82098C10.3505 10.1307 9.76089 10.3572 9.17128 10.5006L13.3302 16.8637H11.2047L7.38232 10.8103H1.88602V16.8637H0.0941832L0.0913086 16.8608ZM1.88314 9.11557H7.35644C7.92879 9.11557 8.51265 9.02954 9.10226 8.85462C9.69186 8.6797 10.1894 8.36714 10.595 7.91406C11.0005 7.46099 11.2047 6.83013 11.2047 6.01861C11.2047 5.01784 10.8625 4.22639 10.1779 3.64715C9.49341 3.0679 8.58455 2.77828 7.45422 2.77828H1.88602V9.11557H1.88314Z" fill="#232323"/>
<path d="M21.2424 17.05C20.0316 17.05 18.9731 16.7747 18.0643 16.227C17.1554 15.6793 16.4508 14.9366 15.9503 13.9989C15.447 13.0612 15.1968 12.0289 15.1968 10.9019C15.1968 9.77499 15.4355 8.7226 15.9129 7.79351C16.3904 6.86442 17.0749 6.12459 17.9694 5.57689C18.8639 5.02919 19.9136 4.75391 21.1245 4.75391C22.3354 4.75391 23.4053 5.02919 24.2911 5.57689C25.1741 6.12459 25.8557 6.86442 26.3332 7.79351C26.8106 8.7226 27.0493 9.76065 27.0493 10.9019V11.616H17.0346C17.1295 12.3156 17.3568 12.9551 17.7163 13.5343C18.0758 14.1136 18.5561 14.5753 19.163 14.9165C19.767 15.2577 20.4687 15.4298 21.2654 15.4298C22.111 15.4298 22.8185 15.2434 23.3909 14.8706C23.9632 14.4978 24.4091 14.0161 24.7283 13.4282H26.687C26.2728 14.4921 25.6142 15.3638 24.7139 16.0377C23.8137 16.7145 22.6546 17.05 21.2367 17.05H21.2424ZM17.0605 9.94991H25.1856C25.0274 8.93479 24.596 8.08313 23.8942 7.40066C23.1924 6.71818 22.2692 6.37694 21.1216 6.37694C19.974 6.37694 19.0537 6.71818 18.3605 7.40066C17.6674 8.08313 17.2331 8.93479 17.0576 9.94991H17.0605Z" fill="#232323"/>
<path d="M33.0231 16.8605L28.3379 4.9458H30.2965L34.0729 14.9536L37.8263 4.9458H39.7849L35.1256 16.8605H33.0231Z" fill="#232323"/>
<path d="M47.053 17.05C45.8421 17.05 44.7837 16.7747 43.8748 16.227C42.966 15.6793 42.2613 14.9366 41.7609 13.9989C41.2604 13.0612 41.0073 12.0289 41.0073 10.9019C41.0073 9.77499 41.246 8.7226 41.7235 7.79351C42.2009 6.86442 42.8854 6.12459 43.7799 5.57689C44.6715 5.02919 45.7242 4.75391 46.9351 4.75391C48.1459 4.75391 49.2187 5.02919 50.1017 5.57689C50.9847 6.12459 51.6663 6.86442 52.1437 7.79351C52.6212 8.7226 52.8599 9.76065 52.8599 10.9019V11.616H42.8452C42.9401 12.3156 43.1673 12.9551 43.5268 13.5343C43.8863 14.1136 44.3667 14.5753 44.9735 14.9165C45.5804 15.2577 46.2793 15.4298 47.076 15.4298C47.9216 15.4298 48.6291 15.2434 49.2043 14.8706C49.7796 14.4978 50.2225 14.0161 50.5417 13.4282H52.5004C52.0862 14.4921 51.4276 15.3638 50.5273 16.0377C49.6271 16.7145 48.468 17.05 47.0501 17.05H47.053ZM42.8711 9.94991H50.9962C50.838 8.93479 50.4065 8.08313 49.7048 7.40066C49.003 6.71818 48.0798 6.37694 46.9322 6.37694C45.7846 6.37694 44.8642 6.71818 44.1711 7.40066C43.4779 8.08313 43.0436 8.93479 42.8682 9.94991H42.8711Z" fill="#232323"/>
<path d="M55.5835 16.8607V4.94603H57.3753V6.8042C57.8068 6.23356 58.3302 5.74895 58.9515 5.35036C59.5727 4.95177 60.3694 4.75391 61.3415 4.75391C62.1699 4.75391 62.9464 4.9489 63.6712 5.33889C64.396 5.72887 64.9856 6.30812 65.44 7.07949C65.8945 7.85086 66.1217 8.80002 66.1217 9.92697V16.8607H64.3298V9.97572C64.3298 8.89465 64.0192 8.02578 63.398 7.36624C62.7767 6.70671 61.9714 6.37694 60.9849 6.37694C60.3147 6.37694 59.7108 6.52892 59.17 6.83001C58.6293 7.1311 58.195 7.5555 57.8672 8.10607C57.5393 8.65664 57.3782 9.28464 57.3782 10.0015V16.8636H55.5864L55.5835 16.8607Z" fill="#232323"/>
<path d="M74.2958 17.0497C73.4847 17.0497 72.711 16.8547 71.9776 16.4647C71.2442 16.0747 70.6517 15.4955 70.1973 14.7241C69.7428 13.9527 69.5156 13.0036 69.5156 11.8766V4.94287H71.3075V11.8279C71.3075 12.9089 71.621 13.7778 72.2508 14.4373C72.8807 15.0969 73.6803 15.4266 74.6524 15.4266C75.3226 15.4266 75.9265 15.2718 76.4701 14.9621C77.0108 14.6524 77.4451 14.228 77.773 13.686C78.098 13.1469 78.262 12.5189 78.262 11.8049V4.94287H80.0538V16.8575H78.262V14.9994C77.8305 15.57 77.3071 16.0546 76.6858 16.4532C76.0646 16.8489 75.2679 17.0497 74.2958 17.0497Z" fill="#232323"/>
<path d="M88.9953 17.05C87.7845 17.05 86.7261 16.7747 85.8172 16.227C84.9083 15.6793 84.2037 14.9366 83.7033 13.9989C83.2028 13.0612 82.9497 12.0289 82.9497 10.9019C82.9497 9.77499 83.1884 8.7226 83.6659 7.79351C84.1433 6.86442 84.8278 6.12459 85.7223 5.57689C86.6139 5.02919 87.6666 4.75391 88.8774 4.75391C90.0883 4.75391 91.1611 5.02919 92.0441 5.57689C92.927 6.12459 93.6087 6.86442 94.0861 7.79351C94.5636 8.7226 94.8023 9.76065 94.8023 10.9019V11.616H84.7876C84.8825 12.3156 85.1097 12.9551 85.4692 13.5343C85.8287 14.1136 86.309 14.5753 86.9159 14.9165C87.5228 15.2577 88.2217 15.4298 89.0184 15.4298C89.8639 15.4298 90.5715 15.2434 91.1467 14.8706C91.7219 14.4978 92.1649 14.0161 92.4841 13.4282H94.4428C94.0286 14.4921 93.37 15.3638 92.4697 16.0377C91.5695 16.7145 90.4104 17.05 88.9925 17.05H88.9953ZM84.8134 9.94991H92.9385C92.7803 8.93479 92.3489 8.08313 91.6472 7.40066C90.9454 6.71818 90.0221 6.37694 88.8745 6.37694C87.727 6.37694 86.8066 6.71818 86.1135 7.40066C85.4203 8.08313 84.986 8.93479 84.8106 9.94991H84.8134Z" fill="#232323"/>
<path d="M97.9087 16.8608V1.08643H99.9881L105.651 8.56786L111.219 1.08643H113.299V16.8608H111.507V3.802L105.651 11.3064L99.7005 3.802V16.8608H97.9087Z" fill="#232323"/>
<path d="M122.359 17.05C121.197 17.05 120.179 16.7747 119.313 16.227C118.445 15.6793 117.772 14.9366 117.294 13.9989C116.817 13.0612 116.578 12.0289 116.578 10.9019C116.578 9.77499 116.817 8.7226 117.294 7.79351C117.772 6.86442 118.445 6.12459 119.313 5.57689C120.182 5.02919 121.197 4.75391 122.359 4.75391C123.346 4.75391 124.194 4.94603 124.905 5.32455C125.612 5.70593 126.19 6.22209 126.636 6.87303V4.94316H128.428V16.8578H126.636V14.9509C126.19 15.5875 125.612 16.0951 124.905 16.4765C124.194 16.8578 123.346 17.0471 122.359 17.0471V17.05ZM122.598 15.4298C123.489 15.4298 124.243 15.2233 124.856 14.8104C125.468 14.3975 125.934 13.844 126.253 13.1558C126.573 12.4647 126.731 11.7135 126.731 10.9048C126.731 10.0962 126.573 9.32478 126.253 8.6423C125.934 7.95983 125.468 7.41212 124.856 6.9992C124.243 6.58627 123.489 6.37981 122.598 6.37981C121.706 6.37981 120.964 6.58627 120.329 6.9992C119.69 7.41212 119.204 7.95983 118.87 8.6423C118.537 9.32478 118.367 10.0789 118.367 10.9048C118.367 11.7307 118.534 12.4647 118.87 13.1558C119.204 13.8469 119.69 14.3975 120.329 14.8104C120.964 15.2233 121.724 15.4298 122.598 15.4298Z" fill="#232323"/>
<path d="M133.352 16.8604V6.52004H130.913V4.94862H133.352V0.68457H135.143V4.94862H137.893V6.52004H135.143V16.8604H133.352Z" fill="#232323"/>
<path d="M145.443 17.05C144.232 17.05 143.173 16.7747 142.264 16.227C141.356 15.6793 140.651 14.9366 140.151 13.9989C139.647 13.0612 139.397 12.0289 139.397 10.9019C139.397 9.77499 139.636 8.7226 140.113 7.79351C140.591 6.86442 141.275 6.12459 142.17 5.57689C143.061 5.02919 144.114 4.75391 145.325 4.75391C146.536 4.75391 147.605 5.02919 148.491 5.57689C149.374 6.12459 150.056 6.86442 150.533 7.79351C151.011 8.7226 151.25 9.76065 151.25 10.9019V11.616H141.235C141.33 12.3156 141.557 12.9551 141.916 13.5343C142.276 14.1136 142.756 14.5753 143.363 14.9165C143.967 15.2577 144.669 15.4298 145.466 15.4298C146.311 15.4298 147.019 15.2434 147.591 14.8706C148.166 14.4978 148.609 14.0161 148.928 13.4282H150.887C150.473 14.4921 149.814 15.3638 148.914 16.0377C148.014 16.7145 146.855 17.05 145.437 17.05H145.443ZM141.261 9.94991H149.386C149.228 8.93479 148.796 8.08313 148.094 7.40066C147.393 6.71818 146.469 6.37694 145.322 6.37694C144.174 6.37694 143.254 6.71818 142.561 7.40066C141.868 8.08313 141.433 8.93479 141.258 9.94991H141.261Z" fill="#232323"/>
<path d="M158.325 17.05C157.226 17.05 156.297 16.8665 155.541 16.5023C154.784 16.1381 154.206 15.6564 153.809 15.0599C153.41 14.4635 153.188 13.8183 153.139 13.1186H155.003C155.052 13.5172 155.19 13.9015 155.42 14.2742C155.65 14.647 156.007 14.951 156.484 15.1804C156.962 15.4098 157.583 15.5274 158.348 15.5274C158.587 15.5274 158.883 15.5044 159.231 15.4557C159.582 15.4069 159.921 15.3209 160.246 15.1947C160.571 15.0685 160.847 14.8764 161.072 14.6241C161.296 14.3689 161.405 14.0448 161.405 13.6462C161.405 13.153 161.212 12.7716 160.833 12.5021C160.45 12.2325 159.956 12.0232 159.352 11.8712C158.745 11.7192 158.103 11.573 157.427 11.4296C156.749 11.2862 156.11 11.0999 155.503 10.8705C154.896 10.641 154.405 10.3141 154.022 9.89262C153.64 9.47109 153.45 8.89471 153.45 8.16635C153.45 7.08529 153.844 6.24796 154.632 5.65151C155.42 5.05506 156.588 4.75684 158.132 4.75684C159.185 4.75684 160.039 4.92029 160.701 5.24432C161.362 5.57122 161.863 5.98702 162.208 6.49457C162.55 7.00213 162.754 7.54983 162.817 8.13768H161.003C160.939 7.63012 160.689 7.19425 160.249 6.82721C159.812 6.46303 159.09 6.27951 158.086 6.27951C156.191 6.27951 155.242 6.85015 155.242 7.9943C155.242 8.47031 155.434 8.83736 155.814 9.0897C156.196 9.34492 156.691 9.54565 157.295 9.69763C157.899 9.84961 158.541 9.99298 159.219 10.1278C159.895 10.2625 160.537 10.4489 161.143 10.6869C161.747 10.9249 162.242 11.2633 162.625 11.6992C163.007 12.135 163.197 12.7286 163.197 13.4742C163.197 14.6327 162.754 15.5188 161.871 16.1295C160.988 16.7403 159.803 17.0472 158.322 17.0472L158.325 17.05Z" fill="#232323"/>
</svg>
